<?xml version="1.0" encoding="UTF-8" standalone="no"?>
<!DOCTYPE svg PUBLIC "-//W3C//DTD SVG 1.1//EN"
 "http://www.w3.org/Graphics/SVG/1.1/DTD/svg11.dtd">
<!-- Generated by graphviz version 2.40.1 (20161225.0304)
 -->
<!-- Title: dependencies Pages: 1 -->
<svg width="504pt" height="211pt"
 viewBox="0.00 0.00 504.00 211.00" xmlns="http://www.w3.org/2000/svg" xmlns:xlink="http://www.w3.org/1999/xlink">
<g id="graph0" class="graph" transform="scale(1 1) rotate(0) translate(4 207)">
<title>dependencies</title>
<polygon fill="#ffffff" stroke="transparent" points="-4,4 -4,-207 500,-207 500,4 -4,4"/>
<text text-anchor="start" x="227.0091" y="-42.4" font-family="sans-serif" font-weight="bold" font-size="14.00" fill="#000000">Legend</text>
<polygon fill="#ffffb3" stroke="transparent" points="14,-10 14,-30 34,-30 34,-10 14,-10"/>
<text text-anchor="start" x="37.629" y="-15.4" font-family="sans-serif" font-size="14.00" fill="#000000"> &#160;Declarations</text>
<polygon fill="#8dd3c7" stroke="transparent" points="127,-10 127,-30 147,-30 147,-10 127,-10"/>
<text text-anchor="start" x="150.7251" y="-15.4" font-family="sans-serif" font-size="14.00" fill="#000000"> &#160;Module</text>
<polygon fill="#80b1d3" stroke="transparent" points="213,-10 213,-30 233,-30 233,-10 213,-10"/>
<text text-anchor="start" x="236.7812" y="-15.4" font-family="sans-serif" font-size="14.00" fill="#000000"> &#160;Bootstrap</text>
<polygon fill="#fdb462" stroke="transparent" points="310,-10 310,-30 330,-30 330,-10 310,-10"/>
<text text-anchor="start" x="333.6732" y="-15.4" font-family="sans-serif" font-size="14.00" fill="#000000"> &#160;Providers</text>
<polygon fill="#fb8072" stroke="transparent" points="406,-10 406,-30 426,-30 426,-10 406,-10"/>
<text text-anchor="start" x="429.7258" y="-15.4" font-family="sans-serif" font-size="14.00" fill="#000000"> &#160;Exports</text>
<g id="clust1" class="cluster">
<title>cluster_MapsModule</title>
<polygon fill="none" stroke="#000000" stroke-dasharray="1,5" points="106,-70 106,-195 390,-195 390,-70 106,-70"/>
</g>
<g id="clust3" class="cluster">
<title>cluster_MapsModule_imports</title>
<polygon fill="none" stroke="#000000" points="114,-78 114,-130 382,-130 382,-78 114,-78"/>
</g>
<!-- ThemeModule -->
<g id="node1" class="node">
<title>ThemeModule</title>
<polygon fill="#8dd3c7" stroke="#000000" points="374.4231,-122 371.4231,-126 350.4231,-126 347.4231,-122 275.5769,-122 275.5769,-86 374.4231,-86 374.4231,-122"/>
<text text-anchor="middle" x="325" y="-99.8" font-family="Times,serif" font-size="14.00" fill="#000000">ThemeModule</text>
</g>
<!-- MapsModule -->
<g id="node3" class="node">
<title>MapsModule</title>
<polygon fill="#8dd3c7" stroke="#000000" points="302.1543,-187 299.1543,-191 278.1543,-191 275.1543,-187 211.8457,-187 211.8457,-151 302.1543,-151 302.1543,-187"/>
<text text-anchor="middle" x="257" y="-164.8" font-family="Times,serif" font-size="14.00" fill="#000000">MapsModule</text>
</g>
<!-- ThemeModule&#45;&gt;MapsModule -->
<g id="edge1" class="edge">
<title>ThemeModule&#45;&gt;MapsModule</title>
<path fill="none" stroke="#000000" d="M289.0579,-122.1061C289.0579,-122.1061 289.0579,-140.991 289.0579,-140.991"/>
<polygon fill="#000000" stroke="#000000" points="285.5579,-140.9909 289.0579,-150.991 292.5579,-140.991 285.5579,-140.9909"/>
</g>
<!-- MapsRoutingModule -->
<g id="node2" class="node">
<title>MapsRoutingModule</title>
<polygon fill="#8dd3c7" stroke="#000000" points="257.7716,-122 254.7716,-126 233.7716,-126 230.7716,-122 122.2284,-122 122.2284,-86 257.7716,-86 257.7716,-122"/>
<text text-anchor="middle" x="190" y="-99.8" font-family="Times,serif" font-size="14.00" fill="#000000">MapsRoutingModule</text>
</g>
<!-- MapsRoutingModule&#45;&gt;MapsModule -->
<g id="edge2" class="edge">
<title>MapsRoutingModule&#45;&gt;MapsModule</title>
<path fill="none" stroke="#000000" d="M234.7795,-122.1061C234.7795,-122.1061 234.7795,-140.991 234.7795,-140.991"/>
<polygon fill="#000000" stroke="#000000" points="231.2795,-140.9909 234.7795,-150.991 238.2795,-140.991 231.2795,-140.9909"/>
</g>
</g>
</svg>
