<?xml version="1.0" encoding="UTF-8" standalone="no"?>
<!DOCTYPE svg PUBLIC "-//W3C//DTD SVG 1.1//EN"
 "http://www.w3.org/Graphics/SVG/1.1/DTD/svg11.dtd">
<!-- Generated by graphviz version 2.40.1 (20161225.0304)
 -->
<!-- Title: dependencies Pages: 1 -->
<svg width="504pt" height="211pt"
 viewBox="0.00 0.00 504.00 211.00" xmlns="http://www.w3.org/2000/svg" xmlns:xlink="http://www.w3.org/1999/xlink">
<g id="graph0" class="graph" transform="scale(1 1) rotate(0) translate(4 207)">
<title>dependencies</title>
<polygon fill="#ffffff" stroke="transparent" points="-4,4 -4,-207 500,-207 500,4 -4,4"/>
<text text-anchor="start" x="227.0091" y="-42.4" font-family="sans-serif" font-weight="bold" font-size="14.00" fill="#000000">Legend</text>
<polygon fill="#ffffb3" stroke="transparent" points="14,-10 14,-30 34,-30 34,-10 14,-10"/>
<text text-anchor="start" x="37.629" y="-15.4" font-family="sans-serif" font-size="14.00" fill="#000000"> &#160;Declarations</text>
<polygon fill="#8dd3c7" stroke="transparent" points="127,-10 127,-30 147,-30 147,-10 127,-10"/>
<text text-anchor="start" x="150.7251" y="-15.4" font-family="sans-serif" font-size="14.00" fill="#000000"> &#160;Module</text>
<polygon fill="#80b1d3" stroke="transparent" points="213,-10 213,-30 233,-30 233,-10 213,-10"/>
<text text-anchor="start" x="236.7812" y="-15.4" font-family="sans-serif" font-size="14.00" fill="#000000"> &#160;Bootstrap</text>
<polygon fill="#fdb462" stroke="transparent" points="310,-10 310,-30 330,-30 330,-10 310,-10"/>
<text text-anchor="start" x="333.6732" y="-15.4" font-family="sans-serif" font-size="14.00" fill="#000000"> &#160;Providers</text>
<polygon fill="#fb8072" stroke="transparent" points="406,-10 406,-30 426,-30 426,-10 406,-10"/>
<text text-anchor="start" x="429.7258" y="-15.4" font-family="sans-serif" font-size="14.00" fill="#000000"> &#160;Exports</text>
<g id="clust1" class="cluster">
<title>cluster_FormsModule</title>
<polygon fill="none" stroke="#000000" stroke-dasharray="1,5" points="43,-70 43,-195 453,-195 453,-70 43,-70"/>
</g>
<g id="clust3" class="cluster">
<title>cluster_FormsModule_imports</title>
<polygon fill="none" stroke="#000000" points="51,-78 51,-130 445,-130 445,-78 51,-78"/>
</g>
<!-- ThemeModule -->
<g id="node1" class="node">
<title>ThemeModule</title>
<polygon fill="#8dd3c7" stroke="#000000" points="437.4231,-122 434.4231,-126 413.4231,-126 410.4231,-122 338.5769,-122 338.5769,-86 437.4231,-86 437.4231,-122"/>
<text text-anchor="middle" x="388" y="-99.8" font-family="Times,serif" font-size="14.00" fill="#000000">ThemeModule</text>
</g>
<!-- FormsModule -->
<g id="node4" class="node">
<title>FormsModule</title>
<polygon fill="#8dd3c7" stroke="#000000" points="298.8288,-187 295.8288,-191 274.8288,-191 271.8288,-187 203.1712,-187 203.1712,-151 298.8288,-151 298.8288,-187"/>
<text text-anchor="middle" x="251" y="-164.8" font-family="Times,serif" font-size="14.00" fill="#000000">FormsModule</text>
</g>
<!-- ThemeModule&#45;&gt;FormsModule -->
<g id="edge1" class="edge">
<title>ThemeModule&#45;&gt;FormsModule</title>
<path fill="none" stroke="#000000" d="M388,-122.1061C388,-141.3391 388,-169 388,-169 388,-169 308.916,-169 308.916,-169"/>
<polygon fill="#000000" stroke="#000000" points="308.916,-165.5001 298.916,-169 308.9159,-172.5001 308.916,-165.5001"/>
</g>
<!-- FormsRoutingModule -->
<g id="node2" class="node">
<title>FormsRoutingModule</title>
<polygon fill="#8dd3c7" stroke="#000000" points="321.4467,-122 318.4467,-126 297.4467,-126 294.4467,-122 180.5533,-122 180.5533,-86 321.4467,-86 321.4467,-122"/>
<text text-anchor="middle" x="251" y="-99.8" font-family="Times,serif" font-size="14.00" fill="#000000">FormsRoutingModule</text>
</g>
<!-- FormsRoutingModule&#45;&gt;FormsModule -->
<g id="edge2" class="edge">
<title>FormsRoutingModule&#45;&gt;FormsModule</title>
<path fill="none" stroke="#000000" d="M251,-122.1061C251,-122.1061 251,-140.991 251,-140.991"/>
<polygon fill="#000000" stroke="#000000" points="247.5001,-140.9909 251,-150.991 254.5001,-140.991 247.5001,-140.9909"/>
</g>
<!-- ButtonsModule -->
<g id="node3" class="node">
<title>ButtonsModule</title>
<polygon fill="#8dd3c7" stroke="#000000" points="162.6123,-122 159.6123,-126 138.6123,-126 135.6123,-122 59.3877,-122 59.3877,-86 162.6123,-86 162.6123,-122"/>
<text text-anchor="middle" x="111" y="-99.8" font-family="Times,serif" font-size="14.00" fill="#000000">ButtonsModule</text>
</g>
<!-- ButtonsModule&#45;&gt;FormsModule -->
<g id="edge3" class="edge">
<title>ButtonsModule&#45;&gt;FormsModule</title>
<path fill="none" stroke="#000000" d="M111,-122.1061C111,-141.3391 111,-169 111,-169 111,-169 193.2115,-169 193.2115,-169"/>
<polygon fill="#000000" stroke="#000000" points="193.2115,-172.5001 203.2115,-169 193.2115,-165.5001 193.2115,-172.5001"/>
</g>
</g>
</svg>
