<?xml version="1.0" encoding="UTF-8" standalone="no"?>
<!DOCTYPE svg PUBLIC "-//W3C//DTD SVG 1.1//EN"
 "http://www.w3.org/Graphics/SVG/1.1/DTD/svg11.dtd">
<!-- Generated by graphviz version 2.40.1 (20161225.0304)
 -->
<!-- Title: dependencies Pages: 1 -->
<svg width="2862pt" height="211pt"
 viewBox="0.00 0.00 2862.00 211.00" xmlns="http://www.w3.org/2000/svg" xmlns:xlink="http://www.w3.org/1999/xlink">
<g id="graph0" class="graph" transform="scale(1 1) rotate(0) translate(4 207)">
<title>dependencies</title>
<polygon fill="#ffffff" stroke="transparent" points="-4,4 -4,-207 2858,-207 2858,4 -4,4"/>
<text text-anchor="start" x="1406.0091" y="-42.4" font-family="sans-serif" font-weight="bold" font-size="14.00" fill="#000000">Legend</text>
<polygon fill="#ffffb3" stroke="transparent" points="1193,-10 1193,-30 1213,-30 1213,-10 1193,-10"/>
<text text-anchor="start" x="1216.629" y="-15.4" font-family="sans-serif" font-size="14.00" fill="#000000"> &#160;Declarations</text>
<polygon fill="#8dd3c7" stroke="transparent" points="1306,-10 1306,-30 1326,-30 1326,-10 1306,-10"/>
<text text-anchor="start" x="1329.7251" y="-15.4" font-family="sans-serif" font-size="14.00" fill="#000000"> &#160;Module</text>
<polygon fill="#80b1d3" stroke="transparent" points="1392,-10 1392,-30 1412,-30 1412,-10 1392,-10"/>
<text text-anchor="start" x="1415.7812" y="-15.4" font-family="sans-serif" font-size="14.00" fill="#000000"> &#160;Bootstrap</text>
<polygon fill="#fdb462" stroke="transparent" points="1489,-10 1489,-30 1509,-30 1509,-10 1489,-10"/>
<text text-anchor="start" x="1512.6732" y="-15.4" font-family="sans-serif" font-size="14.00" fill="#000000"> &#160;Providers</text>
<polygon fill="#fb8072" stroke="transparent" points="1585,-10 1585,-30 1605,-30 1605,-10 1585,-10"/>
<text text-anchor="start" x="1608.7258" y="-15.4" font-family="sans-serif" font-size="14.00" fill="#000000"> &#160;Exports</text>
<g id="clust1" class="cluster">
<title>cluster_DashboardModule</title>
<polygon fill="none" stroke="#000000" stroke-dasharray="1,5" points="8,-70 8,-195 2846,-195 2846,-70 8,-70"/>
</g>
<g id="clust2" class="cluster">
<title>cluster_DashboardModule_declarations</title>
<polygon fill="none" stroke="#000000" points="138,-78 138,-130 2838,-130 2838,-78 138,-78"/>
</g>
<g id="clust20" class="cluster">
<title>cluster_DashboardModule_imports</title>
<polygon fill="none" stroke="#000000" points="16,-78 16,-130 130,-130 130,-78 16,-78"/>
</g>
<!-- DashboardComponent -->
<g id="node1" class="node">
<title>DashboardComponent</title>
<polygon fill="#ffffb3" stroke="#000000" points="2829.9734,-122 2688.0266,-122 2688.0266,-86 2829.9734,-86 2829.9734,-122"/>
<text text-anchor="middle" x="2759" y="-99.8" font-family="Times,serif" font-size="14.00" fill="#000000">DashboardComponent</text>
</g>
<!-- DashboardModule -->
<g id="node18" class="node">
<title>DashboardModule</title>
<polygon fill="#8dd3c7" stroke="#000000" points="1442.191,-187 1439.191,-191 1418.191,-191 1415.191,-187 1321.809,-187 1321.809,-151 1442.191,-151 1442.191,-187"/>
<text text-anchor="middle" x="1382" y="-164.8" font-family="Times,serif" font-size="14.00" fill="#000000">DashboardModule</text>
</g>
<!-- DashboardComponent&#45;&gt;DashboardModule -->
<g id="edge1" class="edge">
<title>DashboardComponent&#45;&gt;DashboardModule</title>
<path fill="none" stroke="#000000" d="M2759,-122.3228C2759,-145.6602 2759,-183 2759,-183 2759,-183 1452.4983,-183 1452.4983,-183"/>
<polygon fill="#000000" stroke="#000000" points="1452.4984,-179.5001 1442.4983,-183 1452.4983,-186.5001 1452.4984,-179.5001"/>
</g>
<!-- StatusCardComponent -->
<g id="node2" class="node">
<title>StatusCardComponent</title>
<polygon fill="#ffffb3" stroke="#000000" points="2670.2674,-122 2527.7326,-122 2527.7326,-86 2670.2674,-86 2670.2674,-122"/>
<text text-anchor="middle" x="2599" y="-99.8" font-family="Times,serif" font-size="14.00" fill="#000000">StatusCardComponent</text>
</g>
<!-- StatusCardComponent&#45;&gt;DashboardModule -->
<g id="edge2" class="edge">
<title>StatusCardComponent&#45;&gt;DashboardModule</title>
<path fill="none" stroke="#000000" d="M2599,-122.1554C2599,-144.3519 2599,-179 2599,-179 2599,-179 1452.3512,-179 1452.3512,-179"/>
<polygon fill="#000000" stroke="#000000" points="1452.3513,-175.5001 1442.3512,-179 1452.3512,-182.5001 1452.3513,-175.5001"/>
</g>
<!-- TemperatureDraggerComponent -->
<g id="node3" class="node">
<title>TemperatureDraggerComponent</title>
<polygon fill="#ffffb3" stroke="#000000" points="2509.203,-122 2310.797,-122 2310.797,-86 2509.203,-86 2509.203,-122"/>
<text text-anchor="middle" x="2410" y="-99.8" font-family="Times,serif" font-size="14.00" fill="#000000">TemperatureDraggerComponent</text>
</g>
<!-- TemperatureDraggerComponent&#45;&gt;DashboardModule -->
<g id="edge3" class="edge">
<title>TemperatureDraggerComponent&#45;&gt;DashboardModule</title>
<path fill="none" stroke="#000000" d="M2410,-122.2843C2410,-143.3211 2410,-175 2410,-175 2410,-175 1452.4682,-175 1452.4682,-175"/>
<polygon fill="#000000" stroke="#000000" points="1452.4682,-171.5001 1442.4682,-175 1452.4681,-178.5001 1452.4682,-171.5001"/>
</g>
<!-- ContactsComponent -->
<g id="node4" class="node">
<title>ContactsComponent</title>
<polygon fill="#ffffb3" stroke="#000000" points="2292.3244,-122 2161.6756,-122 2161.6756,-86 2292.3244,-86 2292.3244,-122"/>
<text text-anchor="middle" x="2227" y="-99.8" font-family="Times,serif" font-size="14.00" fill="#000000">ContactsComponent</text>
</g>
<!-- ContactsComponent&#45;&gt;DashboardModule -->
<g id="edge4" class="edge">
<title>ContactsComponent&#45;&gt;DashboardModule</title>
<path fill="none" stroke="#000000" d="M2227,-122.308C2227,-142.1455 2227,-171 2227,-171 2227,-171 1452.4312,-171 1452.4312,-171"/>
<polygon fill="#000000" stroke="#000000" points="1452.4312,-167.5001 1442.4312,-171 1452.4312,-174.5001 1452.4312,-167.5001"/>
</g>
<!-- RoomSelectorComponent -->
<g id="node5" class="node">
<title>RoomSelectorComponent</title>
<polygon fill="#ffffb3" stroke="#000000" points="2143.9284,-122 1982.0716,-122 1982.0716,-86 2143.9284,-86 2143.9284,-122"/>
<text text-anchor="middle" x="2063" y="-99.8" font-family="Times,serif" font-size="14.00" fill="#000000">RoomSelectorComponent</text>
</g>
<!-- RoomSelectorComponent&#45;&gt;DashboardModule -->
<g id="edge5" class="edge">
<title>RoomSelectorComponent&#45;&gt;DashboardModule</title>
<path fill="none" stroke="#000000" d="M2063,-122.2222C2063,-140.8285 2063,-167 2063,-167 2063,-167 1452.1355,-167 1452.1355,-167"/>
<polygon fill="#000000" stroke="#000000" points="1452.1355,-163.5001 1442.1355,-167 1452.1354,-170.5001 1452.1355,-163.5001"/>
</g>
<!-- TemperatureComponent -->
<g id="node6" class="node">
<title>TemperatureComponent</title>
<polygon fill="#ffffb3" stroke="#000000" points="1964.3459,-122 1811.6541,-122 1811.6541,-86 1964.3459,-86 1964.3459,-122"/>
<text text-anchor="middle" x="1888" y="-99.8" font-family="Times,serif" font-size="14.00" fill="#000000">TemperatureComponent</text>
</g>
<!-- TemperatureComponent&#45;&gt;DashboardModule -->
<g id="edge6" class="edge">
<title>TemperatureComponent&#45;&gt;DashboardModule</title>
<path fill="none" stroke="#000000" d="M1888,-122.0225C1888,-139.3734 1888,-163 1888,-163 1888,-163 1452.2821,-163 1452.2821,-163"/>
<polygon fill="#000000" stroke="#000000" points="1452.2822,-159.5001 1442.2821,-163 1452.2821,-166.5001 1452.2822,-159.5001"/>
</g>
<!-- RoomsComponent -->
<g id="node7" class="node">
<title>RoomsComponent</title>
<polygon fill="#ffffb3" stroke="#000000" points="1793.5042,-122 1672.4958,-122 1672.4958,-86 1793.5042,-86 1793.5042,-122"/>
<text text-anchor="middle" x="1733" y="-99.8" font-family="Times,serif" font-size="14.00" fill="#000000">RoomsComponent</text>
</g>
<!-- RoomsComponent&#45;&gt;DashboardModule -->
<g id="edge7" class="edge">
<title>RoomsComponent&#45;&gt;DashboardModule</title>
<path fill="none" stroke="#000000" d="M1733,-122.0091C1733,-138.0494 1733,-159 1733,-159 1733,-159 1452.3391,-159 1452.3391,-159"/>
<polygon fill="#000000" stroke="#000000" points="1452.3391,-155.5001 1442.3391,-159 1452.339,-162.5001 1452.3391,-155.5001"/>
</g>
<!-- TeamComponent -->
<g id="node8" class="node">
<title>TeamComponent</title>
<polygon fill="#ffffb3" stroke="#000000" points="1654.705,-122 1541.295,-122 1541.295,-86 1654.705,-86 1654.705,-122"/>
<text text-anchor="middle" x="1598" y="-99.8" font-family="Times,serif" font-size="14.00" fill="#000000">TeamComponent</text>
</g>
<!-- TeamComponent&#45;&gt;DashboardModule -->
<g id="edge8" class="edge">
<title>TeamComponent&#45;&gt;DashboardModule</title>
<path fill="none" stroke="#000000" d="M1598,-122.1243C1598,-136.7832 1598,-155 1598,-155 1598,-155 1452.168,-155 1452.168,-155"/>
<polygon fill="#000000" stroke="#000000" points="1452.1681,-151.5001 1442.168,-155 1452.168,-158.5001 1452.1681,-151.5001"/>
</g>
<!-- KittenComponent -->
<g id="node9" class="node">
<title>KittenComponent</title>
<polygon fill="#ffffb3" stroke="#000000" points="1523.3259,-122 1406.6741,-122 1406.6741,-86 1523.3259,-86 1523.3259,-122"/>
<text text-anchor="middle" x="1465" y="-99.8" font-family="Times,serif" font-size="14.00" fill="#000000">KittenComponent</text>
</g>
<!-- KittenComponent&#45;&gt;DashboardModule -->
<g id="edge9" class="edge">
<title>KittenComponent&#45;&gt;DashboardModule</title>
<path fill="none" stroke="#000000" d="M1424.4664,-122.1061C1424.4664,-122.1061 1424.4664,-140.991 1424.4664,-140.991"/>
<polygon fill="#000000" stroke="#000000" points="1420.9664,-140.9909 1424.4664,-150.991 1427.9664,-140.991 1420.9664,-140.9909"/>
</g>
<!-- SecurityCamerasComponent -->
<g id="node10" class="node">
<title>SecurityCamerasComponent</title>
<polygon fill="#ffffb3" stroke="#000000" points="1388.4622,-122 1211.5378,-122 1211.5378,-86 1388.4622,-86 1388.4622,-122"/>
<text text-anchor="middle" x="1300" y="-99.8" font-family="Times,serif" font-size="14.00" fill="#000000">SecurityCamerasComponent</text>
</g>
<!-- SecurityCamerasComponent&#45;&gt;DashboardModule -->
<g id="edge10" class="edge">
<title>SecurityCamerasComponent&#45;&gt;DashboardModule</title>
<path fill="none" stroke="#000000" d="M1355.1929,-122.1061C1355.1929,-122.1061 1355.1929,-140.991 1355.1929,-140.991"/>
<polygon fill="#000000" stroke="#000000" points="1351.6929,-140.9909 1355.1929,-150.991 1358.6929,-140.991 1351.6929,-140.9909"/>
</g>
<!-- ElectricityComponent -->
<g id="node11" class="node">
<title>ElectricityComponent</title>
<polygon fill="#ffffb3" stroke="#000000" points="1193.6429,-122 1054.3571,-122 1054.3571,-86 1193.6429,-86 1193.6429,-122"/>
<text text-anchor="middle" x="1124" y="-99.8" font-family="Times,serif" font-size="14.00" fill="#000000">ElectricityComponent</text>
</g>
<!-- ElectricityComponent&#45;&gt;DashboardModule -->
<g id="edge11" class="edge">
<title>ElectricityComponent&#45;&gt;DashboardModule</title>
<path fill="none" stroke="#000000" d="M1124,-122.1243C1124,-136.7832 1124,-155 1124,-155 1124,-155 1311.8361,-155 1311.8361,-155"/>
<polygon fill="#000000" stroke="#000000" points="1311.8361,-158.5001 1321.8361,-155 1311.836,-151.5001 1311.8361,-158.5001"/>
</g>
<!-- ElectricityChartComponent -->
<g id="node12" class="node">
<title>ElectricityChartComponent</title>
<polygon fill="#ffffb3" stroke="#000000" points="1036.245,-122 865.755,-122 865.755,-86 1036.245,-86 1036.245,-122"/>
<text text-anchor="middle" x="951" y="-99.8" font-family="Times,serif" font-size="14.00" fill="#000000">ElectricityChartComponent</text>
</g>
<!-- ElectricityChartComponent&#45;&gt;DashboardModule -->
<g id="edge12" class="edge">
<title>ElectricityChartComponent&#45;&gt;DashboardModule</title>
<path fill="none" stroke="#000000" d="M951,-122.0091C951,-138.0494 951,-159 951,-159 951,-159 1311.6175,-159 1311.6175,-159"/>
<polygon fill="#000000" stroke="#000000" points="1311.6175,-162.5001 1321.6175,-159 1311.6174,-155.5001 1311.6175,-162.5001"/>
</g>
<!-- WeatherComponent -->
<g id="node13" class="node">
<title>WeatherComponent</title>
<polygon fill="#ffffb3" stroke="#000000" points="847.2423,-122 718.7577,-122 718.7577,-86 847.2423,-86 847.2423,-122"/>
<text text-anchor="middle" x="783" y="-99.8" font-family="Times,serif" font-size="14.00" fill="#000000">WeatherComponent</text>
</g>
<!-- WeatherComponent&#45;&gt;DashboardModule -->
<g id="edge13" class="edge">
<title>WeatherComponent&#45;&gt;DashboardModule</title>
<path fill="none" stroke="#000000" d="M783,-122.0225C783,-139.3734 783,-163 783,-163 783,-163 1311.823,-163 1311.823,-163"/>
<polygon fill="#000000" stroke="#000000" points="1311.8231,-166.5001 1321.823,-163 1311.823,-159.5001 1311.8231,-166.5001"/>
</g>
<!-- PlayerComponent -->
<g id="node14" class="node">
<title>PlayerComponent</title>
<polygon fill="#ffffb3" stroke="#000000" points="700.5954,-122 583.4046,-122 583.4046,-86 700.5954,-86 700.5954,-122"/>
<text text-anchor="middle" x="642" y="-99.8" font-family="Times,serif" font-size="14.00" fill="#000000">PlayerComponent</text>
</g>
<!-- PlayerComponent&#45;&gt;DashboardModule -->
<g id="edge14" class="edge">
<title>PlayerComponent&#45;&gt;DashboardModule</title>
<path fill="none" stroke="#000000" d="M642,-122.2222C642,-140.8285 642,-167 642,-167 642,-167 1311.7565,-167 1311.7565,-167"/>
<polygon fill="#000000" stroke="#000000" points="1311.7565,-170.5001 1321.7565,-167 1311.7564,-163.5001 1311.7565,-170.5001"/>
</g>
<!-- SolarComponent -->
<g id="node15" class="node">
<title>SolarComponent</title>
<polygon fill="#ffffb3" stroke="#000000" points="565.3809,-122 454.6191,-122 454.6191,-86 565.3809,-86 565.3809,-122"/>
<text text-anchor="middle" x="510" y="-99.8" font-family="Times,serif" font-size="14.00" fill="#000000">SolarComponent</text>
</g>
<!-- SolarComponent&#45;&gt;DashboardModule -->
<g id="edge15" class="edge">
<title>SolarComponent&#45;&gt;DashboardModule</title>
<path fill="none" stroke="#000000" d="M510,-122.308C510,-142.1455 510,-171 510,-171 510,-171 1311.7199,-171 1311.7199,-171"/>
<polygon fill="#000000" stroke="#000000" points="1311.7199,-174.5001 1321.7199,-171 1311.7198,-167.5001 1311.7199,-174.5001"/>
</g>
<!-- TrafficComponent -->
<g id="node16" class="node">
<title>TrafficComponent</title>
<polygon fill="#ffffb3" stroke="#000000" points="436.1867,-122 315.8133,-122 315.8133,-86 436.1867,-86 436.1867,-122"/>
<text text-anchor="middle" x="376" y="-99.8" font-family="Times,serif" font-size="14.00" fill="#000000">TrafficComponent</text>
</g>
<!-- TrafficComponent&#45;&gt;DashboardModule -->
<g id="edge16" class="edge">
<title>TrafficComponent&#45;&gt;DashboardModule</title>
<path fill="none" stroke="#000000" d="M376,-122.2843C376,-143.3211 376,-175 376,-175 376,-175 1311.7098,-175 1311.7098,-175"/>
<polygon fill="#000000" stroke="#000000" points="1311.7098,-178.5001 1321.7098,-175 1311.7097,-171.5001 1311.7098,-178.5001"/>
</g>
<!-- TrafficChartComponent -->
<g id="node17" class="node">
<title>TrafficChartComponent</title>
<polygon fill="#ffffb3" stroke="#000000" points="297.7893,-122 146.2107,-122 146.2107,-86 297.7893,-86 297.7893,-122"/>
<text text-anchor="middle" x="222" y="-99.8" font-family="Times,serif" font-size="14.00" fill="#000000">TrafficChartComponent</text>
</g>
<!-- TrafficChartComponent&#45;&gt;DashboardModule -->
<g id="edge17" class="edge">
<title>TrafficChartComponent&#45;&gt;DashboardModule</title>
<path fill="none" stroke="#000000" d="M222,-122.1554C222,-144.3519 222,-179 222,-179 222,-179 1311.6719,-179 1311.6719,-179"/>
<polygon fill="#000000" stroke="#000000" points="1311.672,-182.5001 1321.6719,-179 1311.6719,-175.5001 1311.672,-182.5001"/>
</g>
<!-- ThemeModule -->
<g id="node19" class="node">
<title>ThemeModule</title>
<polygon fill="#8dd3c7" stroke="#000000" points="122.4231,-122 119.4231,-126 98.4231,-126 95.4231,-122 23.5769,-122 23.5769,-86 122.4231,-86 122.4231,-122"/>
<text text-anchor="middle" x="73" y="-99.8" font-family="Times,serif" font-size="14.00" fill="#000000">ThemeModule</text>
</g>
<!-- ThemeModule&#45;&gt;DashboardModule -->
<g id="edge18" class="edge">
<title>ThemeModule&#45;&gt;DashboardModule</title>
<path fill="none" stroke="#000000" d="M73,-122.3228C73,-145.6602 73,-183 73,-183 73,-183 1311.4895,-183 1311.4895,-183"/>
<polygon fill="#000000" stroke="#000000" points="1311.4895,-186.5001 1321.4895,-183 1311.4895,-179.5001 1311.4895,-186.5001"/>
</g>
</g>
</svg>
