<?xml version="1.0" encoding="UTF-8" standalone="no"?>
<!DOCTYPE svg PUBLIC "-//W3C//DTD SVG 1.1//EN"
 "http://www.w3.org/Graphics/SVG/1.1/DTD/svg11.dtd">
<!-- Generated by graphviz version 2.40.1 (20161225.0304)
 -->
<!-- Title: dependencies Pages: 1 -->
<svg width="504pt" height="211pt"
 viewBox="0.00 0.00 504.00 211.00" xmlns="http://www.w3.org/2000/svg" xmlns:xlink="http://www.w3.org/1999/xlink">
<g id="graph0" class="graph" transform="scale(1 1) rotate(0) translate(4 207)">
<title>dependencies</title>
<polygon fill="#ffffff" stroke="transparent" points="-4,4 -4,-207 500,-207 500,4 -4,4"/>
<text text-anchor="start" x="227.0091" y="-42.4" font-family="sans-serif" font-weight="bold" font-size="14.00" fill="#000000">Legend</text>
<polygon fill="#ffffb3" stroke="transparent" points="14,-10 14,-30 34,-30 34,-10 14,-10"/>
<text text-anchor="start" x="37.629" y="-15.4" font-family="sans-serif" font-size="14.00" fill="#000000"> &#160;Declarations</text>
<polygon fill="#8dd3c7" stroke="transparent" points="127,-10 127,-30 147,-30 147,-10 127,-10"/>
<text text-anchor="start" x="150.7251" y="-15.4" font-family="sans-serif" font-size="14.00" fill="#000000"> &#160;Module</text>
<polygon fill="#80b1d3" stroke="transparent" points="213,-10 213,-30 233,-30 233,-10 213,-10"/>
<text text-anchor="start" x="236.7812" y="-15.4" font-family="sans-serif" font-size="14.00" fill="#000000"> &#160;Bootstrap</text>
<polygon fill="#fdb462" stroke="transparent" points="310,-10 310,-30 330,-30 330,-10 310,-10"/>
<text text-anchor="start" x="333.6732" y="-15.4" font-family="sans-serif" font-size="14.00" fill="#000000"> &#160;Providers</text>
<polygon fill="#fb8072" stroke="transparent" points="406,-10 406,-30 426,-30 426,-10 406,-10"/>
<text text-anchor="start" x="429.7258" y="-15.4" font-family="sans-serif" font-size="14.00" fill="#000000"> &#160;Exports</text>
<g id="clust1" class="cluster">
<title>cluster_BootstrapModule</title>
<polygon fill="none" stroke="#000000" stroke-dasharray="1,5" points="33.5,-70 33.5,-195 462.5,-195 462.5,-70 33.5,-70"/>
</g>
<g id="clust3" class="cluster">
<title>cluster_BootstrapModule_imports</title>
<polygon fill="none" stroke="#000000" points="41.5,-78 41.5,-130 454.5,-130 454.5,-78 41.5,-78"/>
</g>
<!-- ThemeModule -->
<g id="node1" class="node">
<title>ThemeModule</title>
<polygon fill="#8dd3c7" stroke="#000000" points="446.9231,-122 443.9231,-126 422.9231,-126 419.9231,-122 348.0769,-122 348.0769,-86 446.9231,-86 446.9231,-122"/>
<text text-anchor="middle" x="397.5" y="-99.8" font-family="Times,serif" font-size="14.00" fill="#000000">ThemeModule</text>
</g>
<!-- BootstrapModule -->
<g id="node4" class="node">
<title>BootstrapModule</title>
<polygon fill="#8dd3c7" stroke="#000000" points="307.4874,-187 304.4874,-191 283.4874,-191 280.4874,-187 193.5126,-187 193.5126,-151 307.4874,-151 307.4874,-187"/>
<text text-anchor="middle" x="250.5" y="-164.8" font-family="Times,serif" font-size="14.00" fill="#000000">BootstrapModule</text>
</g>
<!-- ThemeModule&#45;&gt;BootstrapModule -->
<g id="edge1" class="edge">
<title>ThemeModule&#45;&gt;BootstrapModule</title>
<path fill="none" stroke="#000000" d="M397.5,-122.1061C397.5,-141.3391 397.5,-169 397.5,-169 397.5,-169 317.755,-169 317.755,-169"/>
<polygon fill="#000000" stroke="#000000" points="317.755,-165.5001 307.755,-169 317.7549,-172.5001 317.755,-165.5001"/>
</g>
<!-- BootstrapRoutingModule -->
<g id="node2" class="node">
<title>BootstrapRoutingModule</title>
<polygon fill="#8dd3c7" stroke="#000000" points="330.1052,-122 327.1052,-126 306.1052,-126 303.1052,-122 170.8948,-122 170.8948,-86 330.1052,-86 330.1052,-122"/>
<text text-anchor="middle" x="250.5" y="-99.8" font-family="Times,serif" font-size="14.00" fill="#000000">BootstrapRoutingModule</text>
</g>
<!-- BootstrapRoutingModule&#45;&gt;BootstrapModule -->
<g id="edge2" class="edge">
<title>BootstrapRoutingModule&#45;&gt;BootstrapModule</title>
<path fill="none" stroke="#000000" d="M250.5,-122.1061C250.5,-122.1061 250.5,-140.991 250.5,-140.991"/>
<polygon fill="#000000" stroke="#000000" points="247.0001,-140.9909 250.5,-150.991 254.0001,-140.991 247.0001,-140.9909"/>
</g>
<!-- ButtonsModule -->
<g id="node3" class="node">
<title>ButtonsModule</title>
<polygon fill="#8dd3c7" stroke="#000000" points="153.1123,-122 150.1123,-126 129.1123,-126 126.1123,-122 49.8877,-122 49.8877,-86 153.1123,-86 153.1123,-122"/>
<text text-anchor="middle" x="101.5" y="-99.8" font-family="Times,serif" font-size="14.00" fill="#000000">ButtonsModule</text>
</g>
<!-- ButtonsModule&#45;&gt;BootstrapModule -->
<g id="edge3" class="edge">
<title>ButtonsModule&#45;&gt;BootstrapModule</title>
<path fill="none" stroke="#000000" d="M101.5,-122.1061C101.5,-141.3391 101.5,-169 101.5,-169 101.5,-169 183.3188,-169 183.3188,-169"/>
<polygon fill="#000000" stroke="#000000" points="183.3189,-172.5001 193.3188,-169 183.3188,-165.5001 183.3189,-172.5001"/>
</g>
</g>
</svg>
