<?xml version="1.0" encoding="UTF-8" standalone="no"?>
<!DOCTYPE svg PUBLIC "-//W3C//DTD SVG 1.1//EN"
 "http://www.w3.org/Graphics/SVG/1.1/DTD/svg11.dtd">
<!-- Generated by graphviz version 2.40.1 (20161225.0304)
 -->
<!-- Title: dependencies Pages: 1 -->
<svg width="754pt" height="211pt"
 viewBox="0.00 0.00 754.00 211.00" xmlns="http://www.w3.org/2000/svg" xmlns:xlink="http://www.w3.org/1999/xlink">
<g id="graph0" class="graph" transform="scale(1 1) rotate(0) translate(4 207)">
<title>dependencies</title>
<polygon fill="#ffffff" stroke="transparent" points="-4,4 -4,-207 750,-207 750,4 -4,4"/>
<text text-anchor="start" x="352.0091" y="-42.4" font-family="sans-serif" font-weight="bold" font-size="14.00" fill="#000000">Legend</text>
<polygon fill="#ffffb3" stroke="transparent" points="139,-10 139,-30 159,-30 159,-10 139,-10"/>
<text text-anchor="start" x="162.629" y="-15.4" font-family="sans-serif" font-size="14.00" fill="#000000"> &#160;Declarations</text>
<polygon fill="#8dd3c7" stroke="transparent" points="252,-10 252,-30 272,-30 272,-10 252,-10"/>
<text text-anchor="start" x="275.7251" y="-15.4" font-family="sans-serif" font-size="14.00" fill="#000000"> &#160;Module</text>
<polygon fill="#80b1d3" stroke="transparent" points="338,-10 338,-30 358,-30 358,-10 338,-10"/>
<text text-anchor="start" x="361.7812" y="-15.4" font-family="sans-serif" font-size="14.00" fill="#000000"> &#160;Bootstrap</text>
<polygon fill="#fdb462" stroke="transparent" points="435,-10 435,-30 455,-30 455,-10 435,-10"/>
<text text-anchor="start" x="458.6732" y="-15.4" font-family="sans-serif" font-size="14.00" fill="#000000"> &#160;Providers</text>
<polygon fill="#fb8072" stroke="transparent" points="531,-10 531,-30 551,-30 551,-10 531,-10"/>
<text text-anchor="start" x="554.7258" y="-15.4" font-family="sans-serif" font-size="14.00" fill="#000000"> &#160;Exports</text>
<g id="clust1" class="cluster">
<title>cluster_PagesModule</title>
<polygon fill="none" stroke="#000000" stroke-dasharray="1,5" points="8,-70 8,-195 738,-195 738,-70 8,-70"/>
</g>
<g id="clust3" class="cluster">
<title>cluster_PagesModule_imports</title>
<polygon fill="none" stroke="#000000" points="16,-78 16,-130 730,-130 730,-78 16,-78"/>
</g>
<!-- PagesRoutingModule -->
<g id="node1" class="node">
<title>PagesRoutingModule</title>
<polygon fill="#8dd3c7" stroke="#000000" points="721.8244,-122 718.8244,-126 697.8244,-126 694.8244,-122 584.1756,-122 584.1756,-86 721.8244,-86 721.8244,-122"/>
<text text-anchor="middle" x="653" y="-99.8" font-family="Times,serif" font-size="14.00" fill="#000000">PagesRoutingModule</text>
</g>
<!-- PagesModule -->
<g id="node6" class="node">
<title>PagesModule</title>
<polygon fill="#8dd3c7" stroke="#000000" points="436.2064,-187 433.2064,-191 412.2064,-191 409.2064,-187 343.7936,-187 343.7936,-151 436.2064,-151 436.2064,-187"/>
<text text-anchor="middle" x="390" y="-164.8" font-family="Times,serif" font-size="14.00" fill="#000000">PagesModule</text>
</g>
<!-- PagesRoutingModule&#45;&gt;PagesModule -->
<g id="edge1" class="edge">
<title>PagesRoutingModule&#45;&gt;PagesModule</title>
<path fill="none" stroke="#000000" d="M653,-122.2843C653,-143.3211 653,-175 653,-175 653,-175 446.1121,-175 446.1121,-175"/>
<polygon fill="#000000" stroke="#000000" points="446.1121,-171.5001 436.1121,-175 446.112,-178.5001 446.1121,-171.5001"/>
</g>
<!-- ThemeModule -->
<g id="node2" class="node">
<title>ThemeModule</title>
<polygon fill="#8dd3c7" stroke="#000000" points="566.4231,-122 563.4231,-126 542.4231,-126 539.4231,-122 467.5769,-122 467.5769,-86 566.4231,-86 566.4231,-122"/>
<text text-anchor="middle" x="517" y="-99.8" font-family="Times,serif" font-size="14.00" fill="#000000">ThemeModule</text>
</g>
<!-- ThemeModule&#45;&gt;PagesModule -->
<g id="edge2" class="edge">
<title>ThemeModule&#45;&gt;PagesModule</title>
<path fill="none" stroke="#000000" d="M517,-122.0225C517,-139.3734 517,-163 517,-163 517,-163 446.2092,-163 446.2092,-163"/>
<polygon fill="#000000" stroke="#000000" points="446.2092,-159.5001 436.2092,-163 446.2091,-166.5001 446.2092,-159.5001"/>
</g>
<!-- DashboardModule -->
<g id="node3" class="node">
<title>DashboardModule</title>
<polygon fill="#8dd3c7" stroke="#000000" points="450.191,-122 447.191,-126 426.191,-126 423.191,-122 329.809,-122 329.809,-86 450.191,-86 450.191,-122"/>
<text text-anchor="middle" x="390" y="-99.8" font-family="Times,serif" font-size="14.00" fill="#000000">DashboardModule</text>
</g>
<!-- DashboardModule&#45;&gt;PagesModule -->
<g id="edge3" class="edge">
<title>DashboardModule&#45;&gt;PagesModule</title>
<path fill="none" stroke="#000000" d="M390,-122.1061C390,-122.1061 390,-140.991 390,-140.991"/>
<polygon fill="#000000" stroke="#000000" points="386.5001,-140.9909 390,-150.991 393.5001,-140.991 386.5001,-140.9909"/>
</g>
<!-- ECommerceModule -->
<g id="node4" class="node">
<title>ECommerceModule</title>
<polygon fill="#8dd3c7" stroke="#000000" points="311.5255,-122 308.5255,-126 287.5255,-126 284.5255,-122 182.4745,-122 182.4745,-86 311.5255,-86 311.5255,-122"/>
<text text-anchor="middle" x="247" y="-99.8" font-family="Times,serif" font-size="14.00" fill="#000000">ECommerceModule</text>
</g>
<!-- ECommerceModule&#45;&gt;PagesModule -->
<g id="edge4" class="edge">
<title>ECommerceModule&#45;&gt;PagesModule</title>
<path fill="none" stroke="#000000" d="M247,-122.0225C247,-139.3734 247,-163 247,-163 247,-163 333.572,-163 333.572,-163"/>
<polygon fill="#000000" stroke="#000000" points="333.572,-166.5001 343.572,-163 333.572,-159.5001 333.572,-166.5001"/>
</g>
<!-- MiscellaneousModule -->
<g id="node5" class="node">
<title>MiscellaneousModule</title>
<polygon fill="#8dd3c7" stroke="#000000" points="164.4144,-122 161.4144,-126 140.4144,-126 137.4144,-122 23.5856,-122 23.5856,-86 164.4144,-86 164.4144,-122"/>
<text text-anchor="middle" x="94" y="-99.8" font-family="Times,serif" font-size="14.00" fill="#000000">MiscellaneousModule</text>
</g>
<!-- MiscellaneousModule&#45;&gt;PagesModule -->
<g id="edge5" class="edge">
<title>MiscellaneousModule&#45;&gt;PagesModule</title>
<path fill="none" stroke="#000000" d="M94,-122.2843C94,-143.3211 94,-175 94,-175 94,-175 333.75,-175 333.75,-175"/>
<polygon fill="#000000" stroke="#000000" points="333.75,-178.5001 343.75,-175 333.75,-171.5001 333.75,-178.5001"/>
</g>
</g>
</svg>
