<?xml version="1.0" encoding="UTF-8" standalone="no"?>
<!DOCTYPE svg PUBLIC "-//W3C//DTD SVG 1.1//EN"
 "http://www.w3.org/Graphics/SVG/1.1/DTD/svg11.dtd">
<!-- Generated by graphviz version 2.40.1 (20161225.0304)
 -->
<!-- Title: dependencies Pages: 1 -->
<svg width="3381pt" height="284pt"
 viewBox="0.00 0.00 3381.00 284.00" xmlns="http://www.w3.org/2000/svg" xmlns:xlink="http://www.w3.org/1999/xlink">
<g id="graph0" class="graph" transform="scale(1 1) rotate(0) translate(4 280)">
<title>dependencies</title>
<polygon fill="#ffffff" stroke="transparent" points="-4,4 -4,-280 3377,-280 3377,4 -4,4"/>
<text text-anchor="start" x="1665.5091" y="-42.4" font-family="sans-serif" font-weight="bold" font-size="14.00" fill="#000000">Legend</text>
<polygon fill="#ffffb3" stroke="transparent" points="1452.5,-10 1452.5,-30 1472.5,-30 1472.5,-10 1452.5,-10"/>
<text text-anchor="start" x="1476.129" y="-15.4" font-family="sans-serif" font-size="14.00" fill="#000000"> &#160;Declarations</text>
<polygon fill="#8dd3c7" stroke="transparent" points="1565.5,-10 1565.5,-30 1585.5,-30 1585.5,-10 1565.5,-10"/>
<text text-anchor="start" x="1589.2251" y="-15.4" font-family="sans-serif" font-size="14.00" fill="#000000"> &#160;Module</text>
<polygon fill="#80b1d3" stroke="transparent" points="1651.5,-10 1651.5,-30 1671.5,-30 1671.5,-10 1651.5,-10"/>
<text text-anchor="start" x="1675.2812" y="-15.4" font-family="sans-serif" font-size="14.00" fill="#000000"> &#160;Bootstrap</text>
<polygon fill="#fdb462" stroke="transparent" points="1748.5,-10 1748.5,-30 1768.5,-30 1768.5,-10 1748.5,-10"/>
<text text-anchor="start" x="1772.1732" y="-15.4" font-family="sans-serif" font-size="14.00" fill="#000000"> &#160;Providers</text>
<polygon fill="#fb8072" stroke="transparent" points="1844.5,-10 1844.5,-30 1864.5,-30 1864.5,-10 1844.5,-10"/>
<text text-anchor="start" x="1868.2258" y="-15.4" font-family="sans-serif" font-size="14.00" fill="#000000"> &#160;Exports</text>
<g id="clust1" class="cluster">
<title>cluster_ThemeModule</title>
<polygon fill="none" stroke="#000000" stroke-dasharray="1,5" points="8,-70 8,-268 3365,-268 3365,-70 8,-70"/>
</g>
<g id="clust2" class="cluster">
<title>cluster_ThemeModule_declarations</title>
<polygon fill="none" stroke="#000000" points="167,-78 167,-130 3326,-130 3326,-78 167,-78"/>
</g>
<g id="clust22" class="cluster">
<title>cluster_ThemeModule_imports</title>
<polygon fill="none" stroke="#000000" points="47,-78 47,-130 159,-130 159,-78 47,-78"/>
</g>
<g id="clust23" class="cluster">
<title>cluster_ThemeModule_exports</title>
<polygon fill="none" stroke="#000000" points="16,-208 16,-260 3357,-260 3357,-208 16,-208"/>
</g>
<!-- CapitalizePipe -->
<g id="node1" class="node">
<title>CapitalizePipe</title>
<polygon fill="#ffffb3" stroke="#000000" points="3317.6458,-122 3220.3542,-122 3220.3542,-86 3317.6458,-86 3317.6458,-122"/>
<text text-anchor="middle" x="3269" y="-99.8" font-family="Times,serif" font-size="14.00" fill="#000000">CapitalizePipe</text>
</g>
<!-- ThemeModule -->
<g id="node20" class="node">
<title>ThemeModule</title>
<polygon fill="#8dd3c7" stroke="#000000" points="1903.4231,-187 1900.4231,-191 1879.4231,-191 1876.4231,-187 1804.5769,-187 1804.5769,-151 1903.4231,-151 1903.4231,-187"/>
<text text-anchor="middle" x="1854" y="-164.8" font-family="Times,serif" font-size="14.00" fill="#000000">ThemeModule</text>
</g>
<!-- CapitalizePipe&#45;&gt;ThemeModule -->
<g id="edge1" class="edge">
<title>CapitalizePipe&#45;&gt;ThemeModule</title>
<path fill="none" stroke="#000000" d="M3224.7074,-122.1061C3224.7074,-141.3391 3224.7074,-169 3224.7074,-169 3224.7074,-169 1913.594,-169 1913.594,-169"/>
<polygon fill="#000000" stroke="#000000" points="1913.594,-165.5001 1903.594,-169 1913.5939,-172.5001 1913.594,-165.5001"/>
</g>
<!-- EvaIconsPipe -->
<g id="node2" class="node">
<title>EvaIconsPipe</title>
<polygon fill="#ffffb3" stroke="#000000" points="3202.4748,-122 3109.5252,-122 3109.5252,-86 3202.4748,-86 3202.4748,-122"/>
<text text-anchor="middle" x="3156" y="-99.8" font-family="Times,serif" font-size="14.00" fill="#000000">EvaIconsPipe</text>
</g>
<!-- EvaIconsPipe&#45;&gt;ThemeModule -->
<g id="edge2" class="edge">
<title>EvaIconsPipe&#45;&gt;ThemeModule</title>
<path fill="none" stroke="#000000" d="M3123.7265,-122.2222C3123.7265,-140.8285 3123.7265,-167 3123.7265,-167 3123.7265,-167 1913.3851,-167 1913.3851,-167"/>
<polygon fill="#000000" stroke="#000000" points="1913.3851,-163.5001 1903.3851,-167 1913.3851,-170.5001 1913.3851,-163.5001"/>
</g>
<!-- FooterComponent -->
<g id="node3" class="node">
<title>FooterComponent</title>
<polygon fill="#ffffb3" stroke="#000000" points="3091.8809,-122 2974.1191,-122 2974.1191,-86 3091.8809,-86 3091.8809,-122"/>
<text text-anchor="middle" x="3033" y="-99.8" font-family="Times,serif" font-size="14.00" fill="#000000">FooterComponent</text>
</g>
<!-- FooterComponent&#45;&gt;ThemeModule -->
<g id="edge3" class="edge">
<title>FooterComponent&#45;&gt;ThemeModule</title>
<path fill="none" stroke="#000000" d="M2984.3619,-122.302C2984.3619,-140.2699 2984.3619,-165 2984.3619,-165 2984.3619,-165 1913.2971,-165 1913.2971,-165"/>
<polygon fill="#000000" stroke="#000000" points="1913.2971,-161.5001 1903.2971,-165 1913.297,-168.5001 1913.2971,-161.5001"/>
</g>
<!-- HeaderComponent -->
<g id="node4" class="node">
<title>HeaderComponent</title>
<polygon fill="#ffffb3" stroke="#000000" points="2955.7437,-122 2834.2563,-122 2834.2563,-86 2955.7437,-86 2955.7437,-122"/>
<text text-anchor="middle" x="2895" y="-99.8" font-family="Times,serif" font-size="14.00" fill="#000000">HeaderComponent</text>
</g>
<!-- HeaderComponent&#45;&gt;ThemeModule -->
<g id="edge4" class="edge">
<title>HeaderComponent&#45;&gt;ThemeModule</title>
<path fill="none" stroke="#000000" d="M2846.375,-122.0225C2846.375,-139.3734 2846.375,-163 2846.375,-163 2846.375,-163 1913.212,-163 1913.212,-163"/>
<polygon fill="#000000" stroke="#000000" points="1913.2121,-159.5001 1903.212,-163 1913.212,-166.5001 1913.2121,-159.5001"/>
</g>
<!-- LayoutDirectionSwitcherComponent -->
<g id="node5" class="node">
<title>LayoutDirectionSwitcherComponent</title>
<polygon fill="#ffffb3" stroke="#000000" points="2815.6189,-122 2592.3811,-122 2592.3811,-86 2815.6189,-86 2815.6189,-122"/>
<text text-anchor="middle" x="2704" y="-99.8" font-family="Times,serif" font-size="14.00" fill="#000000">LayoutDirectionSwitcherComponent</text>
</g>
<!-- LayoutDirectionSwitcherComponent&#45;&gt;ThemeModule -->
<g id="edge5" class="edge">
<title>LayoutDirectionSwitcherComponent&#45;&gt;ThemeModule</title>
<path fill="none" stroke="#000000" d="M2653.875,-122.0352C2653.875,-138.7344 2653.875,-161 2653.875,-161 2653.875,-161 1913.4321,-161 1913.4321,-161"/>
<polygon fill="#000000" stroke="#000000" points="1913.4322,-157.5001 1903.4321,-161 1913.4321,-164.5001 1913.4322,-157.5001"/>
</g>
<!-- NumberWithCommasPipe -->
<g id="node6" class="node">
<title>NumberWithCommasPipe</title>
<polygon fill="#ffffb3" stroke="#000000" points="2574.0337,-122 2409.9663,-122 2409.9663,-86 2574.0337,-86 2574.0337,-122"/>
<text text-anchor="middle" x="2492" y="-99.8" font-family="Times,serif" font-size="14.00" fill="#000000">NumberWithCommasPipe</text>
</g>
<!-- NumberWithCommasPipe&#45;&gt;ThemeModule -->
<g id="edge6" class="edge">
<title>NumberWithCommasPipe&#45;&gt;ThemeModule</title>
<path fill="none" stroke="#000000" d="M2439.875,-122.0091C2439.875,-138.0494 2439.875,-159 2439.875,-159 2439.875,-159 1913.4464,-159 1913.4464,-159"/>
<polygon fill="#000000" stroke="#000000" points="1913.4465,-155.5001 1903.4464,-159 1913.4464,-162.5001 1913.4465,-155.5001"/>
</g>
<!-- OneColumnLayoutComponent -->
<g id="node7" class="node">
<title>OneColumnLayoutComponent</title>
<polygon fill="#ffffb3" stroke="#000000" points="2391.9297,-122 2202.0703,-122 2202.0703,-86 2391.9297,-86 2391.9297,-122"/>
<text text-anchor="middle" x="2297" y="-99.8" font-family="Times,serif" font-size="14.00" fill="#000000">OneColumnLayoutComponent</text>
</g>
<!-- OneColumnLayoutComponent&#45;&gt;ThemeModule -->
<g id="edge7" class="edge">
<title>OneColumnLayoutComponent&#45;&gt;ThemeModule</title>
<path fill="none" stroke="#000000" d="M2243.375,-122.2396C2243.375,-137.5706 2243.375,-157 2243.375,-157 2243.375,-157 1913.3146,-157 1913.3146,-157"/>
<polygon fill="#000000" stroke="#000000" points="1913.3146,-153.5001 1903.3146,-157 1913.3146,-160.5001 1913.3146,-153.5001"/>
</g>
<!-- PluralPipe -->
<g id="node8" class="node">
<title>PluralPipe</title>
<polygon fill="#ffffb3" stroke="#000000" points="2184.3275,-122 2109.6725,-122 2109.6725,-86 2184.3275,-86 2184.3275,-122"/>
<text text-anchor="middle" x="2147" y="-99.8" font-family="Times,serif" font-size="14.00" fill="#000000">PluralPipe</text>
</g>
<!-- PluralPipe&#45;&gt;ThemeModule -->
<g id="edge8" class="edge">
<title>PluralPipe&#45;&gt;ThemeModule</title>
<path fill="none" stroke="#000000" d="M2147,-122.1243C2147,-136.7832 2147,-155 2147,-155 2147,-155 1913.3721,-155 1913.3721,-155"/>
<polygon fill="#000000" stroke="#000000" points="1913.3722,-151.5001 1903.3721,-155 1913.3721,-158.5001 1913.3722,-151.5001"/>
</g>
<!-- RoundPipe -->
<g id="node9" class="node">
<title>RoundPipe</title>
<polygon fill="#ffffb3" stroke="#000000" points="2092.2247,-122 2013.7753,-122 2013.7753,-86 2092.2247,-86 2092.2247,-122"/>
<text text-anchor="middle" x="2053" y="-99.8" font-family="Times,serif" font-size="14.00" fill="#000000">RoundPipe</text>
</g>
<!-- RoundPipe&#45;&gt;ThemeModule -->
<g id="edge9" class="edge">
<title>RoundPipe&#45;&gt;ThemeModule</title>
<path fill="none" stroke="#000000" d="M2043.9006,-122.2458C2043.9006,-136.1772 2043.9006,-153 2043.9006,-153 2043.9006,-153 1913.3984,-153 1913.3984,-153"/>
<polygon fill="#000000" stroke="#000000" points="1913.3984,-149.5001 1903.3984,-153 1913.3984,-156.5001 1913.3984,-149.5001"/>
</g>
<!-- SampleLayoutComponent -->
<g id="node10" class="node">
<title>SampleLayoutComponent</title>
<polygon fill="#ffffb3" stroke="#000000" points="1995.4832,-122 1832.5168,-122 1832.5168,-86 1995.4832,-86 1995.4832,-122"/>
<text text-anchor="middle" x="1914" y="-99.8" font-family="Times,serif" font-size="14.00" fill="#000000">SampleLayoutComponent</text>
</g>
<!-- SampleLayoutComponent&#45;&gt;ThemeModule -->
<g id="edge10" class="edge">
<title>SampleLayoutComponent&#45;&gt;ThemeModule</title>
<path fill="none" stroke="#000000" d="M1867.8598,-122.1061C1867.8598,-122.1061 1867.8598,-140.991 1867.8598,-140.991"/>
<polygon fill="#000000" stroke="#000000" points="1864.3598,-140.9909 1867.8598,-150.991 1871.3598,-140.991 1864.3598,-140.9909"/>
</g>
<!-- SearchInputComponent -->
<g id="node11" class="node">
<title>SearchInputComponent</title>
<polygon fill="#ffffb3" stroke="#000000" points="1814.4706,-122 1665.5294,-122 1665.5294,-86 1814.4706,-86 1814.4706,-122"/>
<text text-anchor="middle" x="1740" y="-99.8" font-family="Times,serif" font-size="14.00" fill="#000000">SearchInputComponent</text>
</g>
<!-- SearchInputComponent&#45;&gt;ThemeModule -->
<g id="edge11" class="edge">
<title>SearchInputComponent&#45;&gt;ThemeModule</title>
<path fill="none" stroke="#000000" d="M1809.6371,-122.1061C1809.6371,-122.1061 1809.6371,-140.991 1809.6371,-140.991"/>
<polygon fill="#000000" stroke="#000000" points="1806.1372,-140.9909 1809.6371,-150.991 1813.1372,-140.991 1806.1372,-140.9909"/>
</g>
<!-- SwitcherComponent -->
<g id="node12" class="node">
<title>SwitcherComponent</title>
<polygon fill="#ffffb3" stroke="#000000" points="1647.5926,-122 1516.4074,-122 1516.4074,-86 1647.5926,-86 1647.5926,-122"/>
<text text-anchor="middle" x="1582" y="-99.8" font-family="Times,serif" font-size="14.00" fill="#000000">SwitcherComponent</text>
</g>
<!-- SwitcherComponent&#45;&gt;ThemeModule -->
<g id="edge12" class="edge">
<title>SwitcherComponent&#45;&gt;ThemeModule</title>
<path fill="none" stroke="#000000" d="M1594.6555,-122.2458C1594.6555,-136.1772 1594.6555,-153 1594.6555,-153 1594.6555,-153 1794.6088,-153 1794.6088,-153"/>
<polygon fill="#000000" stroke="#000000" points="1794.6089,-156.5001 1804.6088,-153 1794.6088,-149.5001 1794.6089,-156.5001"/>
</g>
<!-- ThemeSettingsComponent -->
<g id="node13" class="node">
<title>ThemeSettingsComponent</title>
<polygon fill="#ffffb3" stroke="#000000" points="1498.8187,-122 1333.1813,-122 1333.1813,-86 1498.8187,-86 1498.8187,-122"/>
<text text-anchor="middle" x="1416" y="-99.8" font-family="Times,serif" font-size="14.00" fill="#000000">ThemeSettingsComponent</text>
</g>
<!-- ThemeSettingsComponent&#45;&gt;ThemeModule -->
<g id="edge13" class="edge">
<title>ThemeSettingsComponent&#45;&gt;ThemeModule</title>
<path fill="none" stroke="#000000" d="M1443.6815,-122.1243C1443.6815,-136.7832 1443.6815,-155 1443.6815,-155 1443.6815,-155 1794.506,-155 1794.506,-155"/>
<polygon fill="#000000" stroke="#000000" points="1794.506,-158.5001 1804.506,-155 1794.506,-151.5001 1794.506,-158.5001"/>
</g>
<!-- ThemeSwitcherComponent -->
<g id="node14" class="node">
<title>ThemeSwitcherComponent</title>
<polygon fill="#ffffb3" stroke="#000000" points="1314.965,-122 1145.035,-122 1145.035,-86 1314.965,-86 1314.965,-122"/>
<text text-anchor="middle" x="1230" y="-99.8" font-family="Times,serif" font-size="14.00" fill="#000000">ThemeSwitcherComponent</text>
</g>
<!-- ThemeSwitcherComponent&#45;&gt;ThemeModule -->
<g id="edge14" class="edge">
<title>ThemeSwitcherComponent&#45;&gt;ThemeModule</title>
<path fill="none" stroke="#000000" d="M1258.2867,-122.2396C1258.2867,-137.5706 1258.2867,-157 1258.2867,-157 1258.2867,-157 1794.7435,-157 1794.7435,-157"/>
<polygon fill="#000000" stroke="#000000" points="1794.7435,-160.5001 1804.7435,-157 1794.7434,-153.5001 1794.7435,-160.5001"/>
</g>
<!-- ThemeSwitcherListComponent -->
<g id="node15" class="node">
<title>ThemeSwitcherListComponent</title>
<polygon fill="#ffffb3" stroke="#000000" points="1126.7436,-122 935.2564,-122 935.2564,-86 1126.7436,-86 1126.7436,-122"/>
<text text-anchor="middle" x="1031" y="-99.8" font-family="Times,serif" font-size="14.00" fill="#000000">ThemeSwitcherListComponent</text>
</g>
<!-- ThemeSwitcherListComponent&#45;&gt;ThemeModule -->
<g id="edge15" class="edge">
<title>ThemeSwitcherListComponent&#45;&gt;ThemeModule</title>
<path fill="none" stroke="#000000" d="M1068.5696,-122.0091C1068.5696,-138.0494 1068.5696,-159 1068.5696,-159 1068.5696,-159 1794.5703,-159 1794.5703,-159"/>
<polygon fill="#000000" stroke="#000000" points="1794.5703,-162.5001 1804.5703,-159 1794.5702,-155.5001 1794.5703,-162.5001"/>
</g>
<!-- ThreeColumnsLayoutComponent -->
<g id="node16" class="node">
<title>ThreeColumnsLayoutComponent</title>
<polygon fill="#ffffb3" stroke="#000000" points="917.1951,-122 712.8049,-122 712.8049,-86 917.1951,-86 917.1951,-122"/>
<text text-anchor="middle" x="815" y="-99.8" font-family="Times,serif" font-size="14.00" fill="#000000">ThreeColumnsLayoutComponent</text>
</g>
<!-- ThreeColumnsLayoutComponent&#45;&gt;ThemeModule -->
<g id="edge16" class="edge">
<title>ThreeColumnsLayoutComponent&#45;&gt;ThemeModule</title>
<path fill="none" stroke="#000000" d="M857.2379,-122.0352C857.2379,-138.7344 857.2379,-161 857.2379,-161 857.2379,-161 1794.5704,-161 1794.5704,-161"/>
<polygon fill="#000000" stroke="#000000" points="1794.5704,-164.5001 1804.5704,-161 1794.5704,-157.5001 1794.5704,-164.5001"/>
</g>
<!-- TimingPipe -->
<g id="node17" class="node">
<title>TimingPipe</title>
<polygon fill="#ffffb3" stroke="#000000" points="695.1123,-122 612.8877,-122 612.8877,-86 695.1123,-86 695.1123,-122"/>
<text text-anchor="middle" x="654" y="-99.8" font-family="Times,serif" font-size="14.00" fill="#000000">TimingPipe</text>
</g>
<!-- TimingPipe&#45;&gt;ThemeModule -->
<g id="edge17" class="edge">
<title>TimingPipe&#45;&gt;ThemeModule</title>
<path fill="none" stroke="#000000" d="M654,-122.0225C654,-139.3734 654,-163 654,-163 654,-163 1794.7214,-163 1794.7214,-163"/>
<polygon fill="#000000" stroke="#000000" points="1794.7214,-166.5001 1804.7214,-163 1794.7214,-159.5001 1794.7214,-166.5001"/>
</g>
<!-- ToggleSettingsButtonComponent -->
<g id="node18" class="node">
<title>ToggleSettingsButtonComponent</title>
<polygon fill="#ffffb3" stroke="#000000" points="595.2217,-122 390.7783,-122 390.7783,-86 595.2217,-86 595.2217,-122"/>
<text text-anchor="middle" x="493" y="-99.8" font-family="Times,serif" font-size="14.00" fill="#000000">ToggleSettingsButtonComponent</text>
</g>
<!-- ToggleSettingsButtonComponent&#45;&gt;ThemeModule -->
<g id="edge18" class="edge">
<title>ToggleSettingsButtonComponent&#45;&gt;ThemeModule</title>
<path fill="none" stroke="#000000" d="M583.6317,-122.302C583.6317,-140.2699 583.6317,-165 583.6317,-165 583.6317,-165 1794.5899,-165 1794.5899,-165"/>
<polygon fill="#000000" stroke="#000000" points="1794.59,-168.5001 1804.5899,-165 1794.5899,-161.5001 1794.59,-168.5001"/>
</g>
<!-- TwoColumnsLayoutComponent -->
<g id="node19" class="node">
<title>TwoColumnsLayoutComponent</title>
<polygon fill="#ffffb3" stroke="#000000" points="372.7119,-122 175.2881,-122 175.2881,-86 372.7119,-86 372.7119,-122"/>
<text text-anchor="middle" x="274" y="-99.8" font-family="Times,serif" font-size="14.00" fill="#000000">TwoColumnsLayoutComponent</text>
</g>
<!-- TwoColumnsLayoutComponent&#45;&gt;ThemeModule -->
<g id="edge19" class="edge">
<title>TwoColumnsLayoutComponent&#45;&gt;ThemeModule</title>
<path fill="none" stroke="#000000" d="M307.3726,-122.2222C307.3726,-140.8285 307.3726,-167 307.3726,-167 307.3726,-167 1794.7262,-167 1794.7262,-167"/>
<polygon fill="#000000" stroke="#000000" points="1794.7263,-170.5001 1804.7262,-167 1794.7262,-163.5001 1794.7263,-170.5001"/>
</g>
<!-- CapitalizePipe  -->
<g id="node22" class="node">
<title>CapitalizePipe </title>
<polygon fill="#fb8072" stroke="#000000" points="3348.6453,-252 3247.3547,-252 3247.3547,-216 3348.6453,-216 3348.6453,-252"/>
<text text-anchor="middle" x="3298" y="-229.8" font-family="Times,serif" font-size="14.00" fill="#000000">CapitalizePipe </text>
</g>
<!-- ThemeModule&#45;&gt;CapitalizePipe  -->
<g id="edge21" class="edge">
<title>ThemeModule&#45;&gt;CapitalizePipe </title>
<path fill="none" stroke="#000000" stroke-dasharray="5,2" d="M1903.5914,-170C2155.6255,-170 3282.625,-170 3282.625,-170 3282.625,-170 3282.625,-205.8314 3282.625,-205.8314"/>
<polygon fill="#000000" stroke="#000000" points="3279.1251,-205.8313 3282.625,-215.8314 3286.1251,-205.8314 3279.1251,-205.8313"/>
</g>
<!-- EvaIconsPipe  -->
<g id="node23" class="node">
<title>EvaIconsPipe </title>
<polygon fill="#fb8072" stroke="#000000" points="3229.476,-252 3132.524,-252 3132.524,-216 3229.476,-216 3229.476,-252"/>
<text text-anchor="middle" x="3181" y="-229.8" font-family="Times,serif" font-size="14.00" fill="#000000">EvaIconsPipe </text>
</g>
<!-- ThemeModule&#45;&gt;EvaIconsPipe  -->
<g id="edge22" class="edge">
<title>ThemeModule&#45;&gt;EvaIconsPipe </title>
<path fill="none" stroke="#000000" stroke-dasharray="5,2" d="M1903.4942,-172C2142.7081,-172 3167.625,-172 3167.625,-172 3167.625,-172 3167.625,-205.7333 3167.625,-205.7333"/>
<polygon fill="#000000" stroke="#000000" points="3164.1251,-205.7333 3167.625,-215.7333 3171.1251,-205.7333 3164.1251,-205.7333"/>
</g>
<!-- FooterComponent  -->
<g id="node24" class="node">
<title>FooterComponent </title>
<polygon fill="#fb8072" stroke="#000000" points="3114.8814,-252 2993.1186,-252 2993.1186,-216 3114.8814,-216 3114.8814,-252"/>
<text text-anchor="middle" x="3054" y="-229.8" font-family="Times,serif" font-size="14.00" fill="#000000">FooterComponent </text>
</g>
<!-- ThemeModule&#45;&gt;FooterComponent  -->
<g id="edge23" class="edge">
<title>ThemeModule&#45;&gt;FooterComponent </title>
<path fill="none" stroke="#000000" stroke-dasharray="5,2" d="M1903.5604,-174C2128.5168,-174 3042.625,-174 3042.625,-174 3042.625,-174 3042.625,-205.998 3042.625,-205.998"/>
<polygon fill="#000000" stroke="#000000" points="3039.1251,-205.998 3042.625,-215.998 3046.1251,-205.9981 3039.1251,-205.998"/>
</g>
<!-- FormsModule  -->
<g id="node25" class="node">
<title>FormsModule </title>
<polygon fill="#fb8072" stroke="#000000" points="2975.3283,-252 2876.6717,-252 2876.6717,-216 2975.3283,-216 2975.3283,-252"/>
<text text-anchor="middle" x="2926" y="-229.8" font-family="Times,serif" font-size="14.00" fill="#000000">FormsModule </text>
</g>
<!-- ThemeModule&#45;&gt;FormsModule  -->
<g id="edge24" class="edge">
<title>ThemeModule&#45;&gt;FormsModule </title>
<path fill="none" stroke="#000000" stroke-dasharray="5,2" d="M1903.4554,-176C2112.9136,-176 2916.2288,-176 2916.2288,-176 2916.2288,-176 2916.2288,-205.9664 2916.2288,-205.9664"/>
<polygon fill="#000000" stroke="#000000" points="2912.7289,-205.9663 2916.2288,-215.9664 2919.7289,-205.9664 2912.7289,-205.9663"/>
</g>
<!-- HeaderComponent  -->
<g id="node26" class="node">
<title>HeaderComponent </title>
<polygon fill="#fb8072" stroke="#000000" points="2858.7436,-252 2733.2564,-252 2733.2564,-216 2858.7436,-216 2858.7436,-252"/>
<text text-anchor="middle" x="2796" y="-229.8" font-family="Times,serif" font-size="14.00" fill="#000000">HeaderComponent </text>
</g>
<!-- ThemeModule&#45;&gt;HeaderComponent  -->
<g id="edge25" class="edge">
<title>ThemeModule&#45;&gt;HeaderComponent </title>
<path fill="none" stroke="#000000" stroke-dasharray="5,2" d="M1903.4951,-178C2094.7119,-178 2774.5938,-178 2774.5938,-178 2774.5938,-178 2774.5938,-205.973 2774.5938,-205.973"/>
<polygon fill="#000000" stroke="#000000" points="2771.0939,-205.973 2774.5938,-215.973 2778.0939,-205.973 2771.0939,-205.973"/>
</g>
<!-- LayoutDirectionSwitcherComponent  -->
<g id="node27" class="node">
<title>LayoutDirectionSwitcherComponent </title>
<polygon fill="#fb8072" stroke="#000000" points="2715.6186,-252 2488.3814,-252 2488.3814,-216 2715.6186,-216 2715.6186,-252"/>
<text text-anchor="middle" x="2602" y="-229.8" font-family="Times,serif" font-size="14.00" fill="#000000">LayoutDirectionSwitcherComponent </text>
</g>
<!-- ThemeModule&#45;&gt;LayoutDirectionSwitcherComponent  -->
<g id="edge26" class="edge">
<title>ThemeModule&#45;&gt;LayoutDirectionSwitcherComponent </title>
<path fill="none" stroke="#000000" stroke-dasharray="5,2" d="M1903.2592,-180C2059.1299,-180 2531.3536,-180 2531.3536,-180 2531.3536,-180 2531.3536,-205.7181 2531.3536,-205.7181"/>
<polygon fill="#000000" stroke="#000000" points="2527.8537,-205.718 2531.3536,-215.7181 2534.8537,-205.7181 2527.8537,-205.718"/>
</g>
<!-- NumberWithCommasPipe  -->
<g id="node28" class="node">
<title>NumberWithCommasPipe </title>
<polygon fill="#fb8072" stroke="#000000" points="2470.033,-252 2301.967,-252 2301.967,-216 2470.033,-216 2470.033,-252"/>
<text text-anchor="middle" x="2386" y="-229.8" font-family="Times,serif" font-size="14.00" fill="#000000">NumberWithCommasPipe </text>
</g>
<!-- ThemeModule&#45;&gt;NumberWithCommasPipe  -->
<g id="edge27" class="edge">
<title>ThemeModule&#45;&gt;NumberWithCommasPipe </title>
<path fill="none" stroke="#000000" stroke-dasharray="5,2" d="M1903.5128,-182C2028.4926,-182 2346.849,-182 2346.849,-182 2346.849,-182 2346.849,-205.8129 2346.849,-205.8129"/>
<polygon fill="#000000" stroke="#000000" points="2343.3491,-205.8129 2346.849,-215.8129 2350.3491,-205.813 2343.3491,-205.8129"/>
</g>
<!-- OneColumnLayoutComponent  -->
<g id="node29" class="node">
<title>OneColumnLayoutComponent </title>
<polygon fill="#fb8072" stroke="#000000" points="2284.4292,-252 2091.5708,-252 2091.5708,-216 2284.4292,-216 2284.4292,-252"/>
<text text-anchor="middle" x="2188" y="-229.8" font-family="Times,serif" font-size="14.00" fill="#000000">OneColumnLayoutComponent </text>
</g>
<!-- ThemeModule&#45;&gt;OneColumnLayoutComponent  -->
<g id="edge28" class="edge">
<title>ThemeModule&#45;&gt;OneColumnLayoutComponent </title>
<path fill="none" stroke="#000000" stroke-dasharray="5,2" d="M1903.3854,-184C1975.4588,-184 2100.9744,-184 2100.9744,-184 2100.9744,-184 2100.9744,-205.9489 2100.9744,-205.9489"/>
<polygon fill="#000000" stroke="#000000" points="2097.4745,-205.9488 2100.9744,-215.9489 2104.4745,-205.9489 2097.4745,-205.9488"/>
</g>
<!-- PluralPipe  -->
<g id="node30" class="node">
<title>PluralPipe </title>
<polygon fill="#fb8072" stroke="#000000" points="2073.827,-252 1996.173,-252 1996.173,-216 2073.827,-216 2073.827,-252"/>
<text text-anchor="middle" x="2035" y="-229.8" font-family="Times,serif" font-size="14.00" fill="#000000">PluralPipe </text>
</g>
<!-- ThemeModule&#45;&gt;PluralPipe  -->
<g id="edge29" class="edge">
<title>ThemeModule&#45;&gt;PluralPipe </title>
<path fill="none" stroke="#000000" stroke-dasharray="5,2" d="M1903.4389,-186C1947.4731,-186 2004.9872,-186 2004.9872,-186 2004.9872,-186 2004.9872,-205.8533 2004.9872,-205.8533"/>
<polygon fill="#000000" stroke="#000000" points="2001.4873,-205.8532 2004.9872,-215.8533 2008.4873,-205.8533 2001.4873,-205.8532"/>
</g>
<!-- RoundPipe  -->
<g id="node31" class="node">
<title>RoundPipe </title>
<polygon fill="#fb8072" stroke="#000000" points="1977.7249,-252 1896.2751,-252 1896.2751,-216 1977.7249,-216 1977.7249,-252"/>
<text text-anchor="middle" x="1937" y="-229.8" font-family="Times,serif" font-size="14.00" fill="#000000">RoundPipe </text>
</g>
<!-- ThemeModule&#45;&gt;RoundPipe  -->
<g id="edge30" class="edge">
<title>ThemeModule&#45;&gt;RoundPipe </title>
<path fill="none" stroke="#000000" stroke-dasharray="5,2" d="M1899.6745,-187.1061C1899.6745,-187.1061 1899.6745,-205.991 1899.6745,-205.991"/>
<polygon fill="#000000" stroke="#000000" points="1896.1745,-205.9909 1899.6745,-215.991 1903.1745,-205.991 1896.1745,-205.9909"/>
</g>
<!-- SampleLayoutComponent  -->
<g id="node32" class="node">
<title>SampleLayoutComponent </title>
<polygon fill="#fb8072" stroke="#000000" points="1878.4839,-252 1711.5161,-252 1711.5161,-216 1878.4839,-216 1878.4839,-252"/>
<text text-anchor="middle" x="1795" y="-229.8" font-family="Times,serif" font-size="14.00" fill="#000000">SampleLayoutComponent </text>
</g>
<!-- ThemeModule&#45;&gt;SampleLayoutComponent  -->
<g id="edge31" class="edge">
<title>ThemeModule&#45;&gt;SampleLayoutComponent </title>
<path fill="none" stroke="#000000" stroke-dasharray="5,2" d="M1841.5153,-187.1061C1841.5153,-187.1061 1841.5153,-205.991 1841.5153,-205.991"/>
<polygon fill="#000000" stroke="#000000" points="1838.0153,-205.9909 1841.5153,-215.991 1845.0153,-205.991 1838.0153,-205.9909"/>
</g>
<!-- SearchInputComponent  -->
<g id="node33" class="node">
<title>SearchInputComponent </title>
<polygon fill="#fb8072" stroke="#000000" points="1694.4713,-252 1541.5287,-252 1541.5287,-216 1694.4713,-216 1694.4713,-252"/>
<text text-anchor="middle" x="1618" y="-229.8" font-family="Times,serif" font-size="14.00" fill="#000000">SearchInputComponent </text>
</g>
<!-- ThemeModule&#45;&gt;SearchInputComponent  -->
<g id="edge32" class="edge">
<title>ThemeModule&#45;&gt;SearchInputComponent </title>
<path fill="none" stroke="#000000" stroke-dasharray="5,2" d="M1804.5685,-186C1753.0895,-186 1679.875,-186 1679.875,-186 1679.875,-186 1679.875,-205.8533 1679.875,-205.8533"/>
<polygon fill="#000000" stroke="#000000" points="1676.3751,-205.8532 1679.875,-215.8533 1683.3751,-205.8533 1676.3751,-205.8532"/>
</g>
<!-- SwitcherComponent  -->
<g id="node34" class="node">
<title>SwitcherComponent </title>
<polygon fill="#fb8072" stroke="#000000" points="1523.0932,-252 1388.9068,-252 1388.9068,-216 1523.0932,-216 1523.0932,-252"/>
<text text-anchor="middle" x="1456" y="-229.8" font-family="Times,serif" font-size="14.00" fill="#000000">SwitcherComponent </text>
</g>
<!-- ThemeModule&#45;&gt;SwitcherComponent  -->
<g id="edge33" class="edge">
<title>ThemeModule&#45;&gt;SwitcherComponent </title>
<path fill="none" stroke="#000000" stroke-dasharray="5,2" d="M1804.731,-184C1709.0841,-184 1507.5565,-184 1507.5565,-184 1507.5565,-184 1507.5565,-205.9489 1507.5565,-205.9489"/>
<polygon fill="#000000" stroke="#000000" points="1504.0565,-205.9488 1507.5565,-215.9489 1511.0565,-205.9489 1504.0565,-205.9488"/>
</g>
<!-- ThemeSettingsComponent  -->
<g id="node35" class="node">
<title>ThemeSettingsComponent </title>
<polygon fill="#fb8072" stroke="#000000" points="1370.3185,-252 1201.6815,-252 1201.6815,-216 1370.3185,-216 1370.3185,-252"/>
<text text-anchor="middle" x="1286" y="-229.8" font-family="Times,serif" font-size="14.00" fill="#000000">ThemeSettingsComponent </text>
</g>
<!-- ThemeModule&#45;&gt;ThemeSettingsComponent  -->
<g id="edge34" class="edge">
<title>ThemeModule&#45;&gt;ThemeSettingsComponent </title>
<path fill="none" stroke="#000000" stroke-dasharray="5,2" d="M1804.4801,-182C1677.8016,-182 1351.875,-182 1351.875,-182 1351.875,-182 1351.875,-205.8129 1351.875,-205.8129"/>
<polygon fill="#000000" stroke="#000000" points="1348.3751,-205.8129 1351.875,-215.8129 1355.3751,-205.813 1348.3751,-205.8129"/>
</g>
<!-- ThemeSwitcherComponent  -->
<g id="node36" class="node">
<title>ThemeSwitcherComponent </title>
<polygon fill="#fb8072" stroke="#000000" points="1183.9656,-252 1010.0344,-252 1010.0344,-216 1183.9656,-216 1183.9656,-252"/>
<text text-anchor="middle" x="1097" y="-229.8" font-family="Times,serif" font-size="14.00" fill="#000000">ThemeSwitcherComponent </text>
</g>
<!-- ThemeModule&#45;&gt;ThemeSwitcherComponent  -->
<g id="edge35" class="edge">
<title>ThemeModule&#45;&gt;ThemeSwitcherComponent </title>
<path fill="none" stroke="#000000" stroke-dasharray="5,2" d="M1804.6806,-180C1646.8422,-180 1164.375,-180 1164.375,-180 1164.375,-180 1164.375,-205.7181 1164.375,-205.7181"/>
<polygon fill="#000000" stroke="#000000" points="1160.8751,-205.718 1164.375,-215.7181 1167.8751,-205.7181 1160.8751,-205.718"/>
</g>
<!-- ThemeSwitcherListComponent  -->
<g id="node37" class="node">
<title>ThemeSwitcherListComponent </title>
<polygon fill="#fb8072" stroke="#000000" points="992.7436,-252 797.2564,-252 797.2564,-216 992.7436,-216 992.7436,-252"/>
<text text-anchor="middle" x="895" y="-229.8" font-family="Times,serif" font-size="14.00" fill="#000000">ThemeSwitcherListComponent </text>
</g>
<!-- ThemeModule&#45;&gt;ThemeSwitcherListComponent  -->
<g id="edge36" class="edge">
<title>ThemeModule&#45;&gt;ThemeSwitcherListComponent </title>
<path fill="none" stroke="#000000" stroke-dasharray="5,2" d="M1804.5558,-178C1617.5251,-178 963.875,-178 963.875,-178 963.875,-178 963.875,-205.973 963.875,-205.973"/>
<polygon fill="#000000" stroke="#000000" points="960.3751,-205.973 963.875,-215.973 967.3751,-205.973 960.3751,-205.973"/>
</g>
<!-- ThreeColumnsLayoutComponent  -->
<g id="node38" class="node">
<title>ThreeColumnsLayoutComponent </title>
<polygon fill="#fb8072" stroke="#000000" points="779.6952,-252 572.3048,-252 572.3048,-216 779.6952,-216 779.6952,-252"/>
<text text-anchor="middle" x="676" y="-229.8" font-family="Times,serif" font-size="14.00" fill="#000000">ThreeColumnsLayoutComponent </text>
</g>
<!-- ThemeModule&#45;&gt;ThreeColumnsLayoutComponent  -->
<g id="edge37" class="edge">
<title>ThemeModule&#45;&gt;ThreeColumnsLayoutComponent </title>
<path fill="none" stroke="#000000" stroke-dasharray="5,2" d="M1804.6173,-176C1589.6747,-176 746.375,-176 746.375,-176 746.375,-176 746.375,-205.9664 746.375,-205.9664"/>
<polygon fill="#000000" stroke="#000000" points="742.8751,-205.9663 746.375,-215.9664 749.8751,-205.9664 742.8751,-205.9663"/>
</g>
<!-- TimingPipe  -->
<g id="node39" class="node">
<title>TimingPipe </title>
<polygon fill="#fb8072" stroke="#000000" points="553.6131,-252 468.3869,-252 468.3869,-216 553.6131,-216 553.6131,-252"/>
<text text-anchor="middle" x="511" y="-229.8" font-family="Times,serif" font-size="14.00" fill="#000000">TimingPipe </text>
</g>
<!-- ThemeModule&#45;&gt;TimingPipe  -->
<g id="edge38" class="edge">
<title>ThemeModule&#45;&gt;TimingPipe </title>
<path fill="none" stroke="#000000" stroke-dasharray="5,2" d="M1804.6092,-174C1562.3141,-174 511,-174 511,-174 511,-174 511,-205.998 511,-205.998"/>
<polygon fill="#000000" stroke="#000000" points="507.5001,-205.998 511,-215.998 514.5001,-205.9981 507.5001,-205.998"/>
</g>
<!-- ToggleSettingsButtonComponent  -->
<g id="node40" class="node">
<title>ToggleSettingsButtonComponent </title>
<polygon fill="#fb8072" stroke="#000000" points="449.7218,-252 242.2782,-252 242.2782,-216 449.7218,-216 449.7218,-252"/>
<text text-anchor="middle" x="346" y="-229.8" font-family="Times,serif" font-size="14.00" fill="#000000">ToggleSettingsButtonComponent </text>
</g>
<!-- ThemeModule&#45;&gt;ToggleSettingsButtonComponent  -->
<g id="edge39" class="edge">
<title>ThemeModule&#45;&gt;ToggleSettingsButtonComponent </title>
<path fill="none" stroke="#000000" stroke-dasharray="5,2" d="M1804.6514,-172C1552.5627,-172 420.375,-172 420.375,-172 420.375,-172 420.375,-205.7333 420.375,-205.7333"/>
<polygon fill="#000000" stroke="#000000" points="416.8751,-205.7333 420.375,-215.7333 423.8751,-205.7333 416.8751,-205.7333"/>
</g>
<!-- TwoColumnsLayoutComponent  -->
<g id="node41" class="node">
<title>TwoColumnsLayoutComponent </title>
<polygon fill="#fb8072" stroke="#000000" points="224.212,-252 23.788,-252 23.788,-216 224.212,-216 224.212,-252"/>
<text text-anchor="middle" x="124" y="-229.8" font-family="Times,serif" font-size="14.00" fill="#000000">TwoColumnsLayoutComponent </text>
</g>
<!-- ThemeModule&#45;&gt;TwoColumnsLayoutComponent  -->
<g id="edge40" class="edge">
<title>ThemeModule&#45;&gt;TwoColumnsLayoutComponent </title>
<path fill="none" stroke="#000000" stroke-dasharray="5,2" d="M1804.4953,-170C1529.2692,-170 199.875,-170 199.875,-170 199.875,-170 199.875,-205.8314 199.875,-205.8314"/>
<polygon fill="#000000" stroke="#000000" points="196.3751,-205.8313 199.875,-215.8314 203.3751,-205.8314 196.3751,-205.8313"/>
</g>
<!-- FormsModule -->
<g id="node21" class="node">
<title>FormsModule</title>
<polygon fill="#8dd3c7" stroke="#000000" points="150.8288,-122 147.8288,-126 126.8288,-126 123.8288,-122 55.1712,-122 55.1712,-86 150.8288,-86 150.8288,-122"/>
<text text-anchor="middle" x="103" y="-99.8" font-family="Times,serif" font-size="14.00" fill="#000000">FormsModule</text>
</g>
<!-- FormsModule&#45;&gt;ThemeModule -->
<g id="edge20" class="edge">
<title>FormsModule&#45;&gt;ThemeModule</title>
<path fill="none" stroke="#000000" d="M103,-122.1061C103,-141.3391 103,-169 103,-169 103,-169 1794.4165,-169 1794.4165,-169"/>
<polygon fill="#000000" stroke="#000000" points="1794.4166,-172.5001 1804.4165,-169 1794.4165,-165.5001 1794.4166,-172.5001"/>
</g>
</g>
</svg>
