<?xml version="1.0" encoding="UTF-8" standalone="no"?>
<!DOCTYPE svg PUBLIC "-//W3C//DTD SVG 1.1//EN"
 "http://www.w3.org/Graphics/SVG/1.1/DTD/svg11.dtd">
<!-- Generated by graphviz version 2.40.1 (20161225.0304)
 -->
<!-- Title: dependencies Pages: 1 -->
<svg width="7004pt" height="211pt"
 viewBox="0.00 0.00 7004.00 211.00" xmlns="http://www.w3.org/2000/svg" xmlns:xlink="http://www.w3.org/1999/xlink">
<g id="graph0" class="graph" transform="scale(1 1) rotate(0) translate(4 207)">
<title>dependencies</title>
<polygon fill="#ffffff" stroke="transparent" points="-4,4 -4,-207 7000,-207 7000,4 -4,4"/>
<text text-anchor="start" x="3477.0091" y="-42.4" font-family="sans-serif" font-weight="bold" font-size="14.00" fill="#000000">Legend</text>
<polygon fill="#ffffb3" stroke="transparent" points="3264,-10 3264,-30 3284,-30 3284,-10 3264,-10"/>
<text text-anchor="start" x="3287.629" y="-15.4" font-family="sans-serif" font-size="14.00" fill="#000000"> &#160;Declarations</text>
<polygon fill="#8dd3c7" stroke="transparent" points="3377,-10 3377,-30 3397,-30 3397,-10 3377,-10"/>
<text text-anchor="start" x="3400.7251" y="-15.4" font-family="sans-serif" font-size="14.00" fill="#000000"> &#160;Module</text>
<polygon fill="#80b1d3" stroke="transparent" points="3463,-10 3463,-30 3483,-30 3483,-10 3463,-10"/>
<text text-anchor="start" x="3486.7812" y="-15.4" font-family="sans-serif" font-size="14.00" fill="#000000"> &#160;Bootstrap</text>
<polygon fill="#fdb462" stroke="transparent" points="3560,-10 3560,-30 3580,-30 3580,-10 3560,-10"/>
<text text-anchor="start" x="3583.6732" y="-15.4" font-family="sans-serif" font-size="14.00" fill="#000000"> &#160;Providers</text>
<polygon fill="#fb8072" stroke="transparent" points="3656,-10 3656,-30 3676,-30 3676,-10 3656,-10"/>
<text text-anchor="start" x="3679.7258" y="-15.4" font-family="sans-serif" font-size="14.00" fill="#000000"> &#160;Exports</text>
<g id="clust1" class="cluster">
<title>cluster_ECommerceModule</title>
<polygon fill="none" stroke="#000000" stroke-dasharray="1,5" points="8,-70 8,-195 6988,-195 6988,-70 8,-70"/>
</g>
<g id="clust2" class="cluster">
<title>cluster_ECommerceModule_declarations</title>
<polygon fill="none" stroke="#000000" points="394,-78 394,-130 6980,-130 6980,-78 394,-78"/>
</g>
<g id="clust35" class="cluster">
<title>cluster_ECommerceModule_imports</title>
<polygon fill="none" stroke="#000000" points="272,-78 272,-130 386,-130 386,-78 272,-78"/>
</g>
<g id="clust38" class="cluster">
<title>cluster_ECommerceModule_providers</title>
<polygon fill="none" stroke="#000000" points="16,-78 16,-130 264,-130 264,-78 16,-78"/>
</g>
<!-- ECommerceComponent -->
<g id="node1" class="node">
<title>ECommerceComponent</title>
<polygon fill="#ffffb3" stroke="#000000" points="6971.8075,-122 6820.1925,-122 6820.1925,-86 6971.8075,-86 6971.8075,-122"/>
<text text-anchor="middle" x="6896" y="-99.8" font-family="Times,serif" font-size="14.00" fill="#000000">ECommerceComponent</text>
</g>
<!-- ECommerceModule -->
<g id="node33" class="node">
<title>ECommerceModule</title>
<polygon fill="#8dd3c7" stroke="#000000" points="3797.5255,-187 3794.5255,-191 3773.5255,-191 3770.5255,-187 3668.4745,-187 3668.4745,-151 3797.5255,-151 3797.5255,-187"/>
<text text-anchor="middle" x="3733" y="-164.8" font-family="Times,serif" font-size="14.00" fill="#000000">ECommerceModule</text>
</g>
<!-- ECommerceComponent&#45;&gt;ECommerceModule -->
<g id="edge1" class="edge">
<title>ECommerceComponent&#45;&gt;ECommerceModule</title>
<path fill="none" stroke="#000000" d="M6896,-122.3802C6896,-146.2785 6896,-185 6896,-185 6896,-185 3807.6154,-185 3807.6154,-185"/>
<polygon fill="#000000" stroke="#000000" points="3807.6155,-181.5001 3797.6154,-185 3807.6154,-188.5001 3807.6155,-181.5001"/>
</g>
<!-- StatsCardFrontComponent -->
<g id="node2" class="node">
<title>StatsCardFrontComponent</title>
<polygon fill="#ffffb3" stroke="#000000" points="6802.101,-122 6635.899,-122 6635.899,-86 6802.101,-86 6802.101,-122"/>
<text text-anchor="middle" x="6719" y="-99.8" font-family="Times,serif" font-size="14.00" fill="#000000">StatsCardFrontComponent</text>
</g>
<!-- StatsCardFrontComponent&#45;&gt;ECommerceModule -->
<g id="edge2" class="edge">
<title>StatsCardFrontComponent&#45;&gt;ECommerceModule</title>
<path fill="none" stroke="#000000" d="M6719,-122.3228C6719,-145.6602 6719,-183 6719,-183 6719,-183 3807.7936,-183 3807.7936,-183"/>
<polygon fill="#000000" stroke="#000000" points="3807.7937,-179.5001 3797.7936,-183 3807.7936,-186.5001 3807.7937,-179.5001"/>
</g>
<!-- StatsAreaChartComponent -->
<g id="node3" class="node">
<title>StatsAreaChartComponent</title>
<polygon fill="#ffffb3" stroke="#000000" points="6618.3543,-122 6451.6457,-122 6451.6457,-86 6618.3543,-86 6618.3543,-122"/>
<text text-anchor="middle" x="6535" y="-99.8" font-family="Times,serif" font-size="14.00" fill="#000000">StatsAreaChartComponent</text>
</g>
<!-- StatsAreaChartComponent&#45;&gt;ECommerceModule -->
<g id="edge3" class="edge">
<title>StatsAreaChartComponent&#45;&gt;ECommerceModule</title>
<path fill="none" stroke="#000000" d="M6535,-122.2479C6535,-145.0179 6535,-181 6535,-181 6535,-181 3807.7989,-181 3807.7989,-181"/>
<polygon fill="#000000" stroke="#000000" points="3807.7989,-177.5001 3797.7989,-181 3807.7989,-184.5001 3807.7989,-177.5001"/>
</g>
<!-- StatsBarAnimationChartComponent -->
<g id="node4" class="node">
<title>StatsBarAnimationChartComponent</title>
<polygon fill="#ffffb3" stroke="#000000" points="6433.7533,-122 6214.2467,-122 6214.2467,-86 6433.7533,-86 6433.7533,-122"/>
<text text-anchor="middle" x="6324" y="-99.8" font-family="Times,serif" font-size="14.00" fill="#000000">StatsBarAnimationChartComponent</text>
</g>
<!-- StatsBarAnimationChartComponent&#45;&gt;ECommerceModule -->
<g id="edge4" class="edge">
<title>StatsBarAnimationChartComponent&#45;&gt;ECommerceModule</title>
<path fill="none" stroke="#000000" d="M6324,-122.1554C6324,-144.3519 6324,-179 6324,-179 6324,-179 3807.694,-179 3807.694,-179"/>
<polygon fill="#000000" stroke="#000000" points="3807.694,-175.5001 3797.694,-179 3807.6939,-182.5001 3807.694,-175.5001"/>
</g>
<!-- ProfitCardComponent -->
<g id="node5" class="node">
<title>ProfitCardComponent</title>
<polygon fill="#ffffb3" stroke="#000000" points="6196.4299,-122 6055.5701,-122 6055.5701,-86 6196.4299,-86 6196.4299,-122"/>
<text text-anchor="middle" x="6126" y="-99.8" font-family="Times,serif" font-size="14.00" fill="#000000">ProfitCardComponent</text>
</g>
<!-- ProfitCardComponent&#45;&gt;ECommerceModule -->
<g id="edge5" class="edge">
<title>ProfitCardComponent&#45;&gt;ECommerceModule</title>
<path fill="none" stroke="#000000" d="M6126,-122.0449C6126,-143.6623 6126,-177 6126,-177 6126,-177 3807.6261,-177 3807.6261,-177"/>
<polygon fill="#000000" stroke="#000000" points="3807.6262,-173.5001 3797.6261,-177 3807.6261,-180.5001 3807.6262,-173.5001"/>
</g>
<!-- ECommerceChartsPanelComponent -->
<g id="node6" class="node">
<title>ECommerceChartsPanelComponent</title>
<polygon fill="#ffffb3" stroke="#000000" points="6037.4566,-122 5818.5434,-122 5818.5434,-86 6037.4566,-86 6037.4566,-122"/>
<text text-anchor="middle" x="5928" y="-99.8" font-family="Times,serif" font-size="14.00" fill="#000000">ECommerceChartsPanelComponent</text>
</g>
<!-- ECommerceChartsPanelComponent&#45;&gt;ECommerceModule -->
<g id="edge6" class="edge">
<title>ECommerceChartsPanelComponent&#45;&gt;ECommerceModule</title>
<path fill="none" stroke="#000000" d="M5928,-122.2843C5928,-143.3211 5928,-175 5928,-175 5928,-175 3807.7996,-175 3807.7996,-175"/>
<polygon fill="#000000" stroke="#000000" points="3807.7997,-171.5001 3797.7996,-175 3807.7996,-178.5001 3807.7997,-171.5001"/>
</g>
<!-- ChartPanelHeaderComponent -->
<g id="node7" class="node">
<title>ChartPanelHeaderComponent</title>
<polygon fill="#ffffb3" stroke="#000000" points="5800.9482,-122 5617.0518,-122 5617.0518,-86 5800.9482,-86 5800.9482,-122"/>
<text text-anchor="middle" x="5709" y="-99.8" font-family="Times,serif" font-size="14.00" fill="#000000">ChartPanelHeaderComponent</text>
</g>
<!-- ChartPanelHeaderComponent&#45;&gt;ECommerceModule -->
<g id="edge7" class="edge">
<title>ChartPanelHeaderComponent&#45;&gt;ECommerceModule</title>
<path fill="none" stroke="#000000" d="M5709,-122.1289C5709,-142.5724 5709,-173 5709,-173 5709,-173 3807.6216,-173 3807.6216,-173"/>
<polygon fill="#000000" stroke="#000000" points="3807.6217,-169.5001 3797.6216,-173 3807.6216,-176.5001 3807.6217,-169.5001"/>
</g>
<!-- ChartPanelSummaryComponent -->
<g id="node8" class="node">
<title>ChartPanelSummaryComponent</title>
<polygon fill="#ffffb3" stroke="#000000" points="5598.9762,-122 5401.0238,-122 5401.0238,-86 5598.9762,-86 5598.9762,-122"/>
<text text-anchor="middle" x="5500" y="-99.8" font-family="Times,serif" font-size="14.00" fill="#000000">ChartPanelSummaryComponent</text>
</g>
<!-- ChartPanelSummaryComponent&#45;&gt;ECommerceModule -->
<g id="edge8" class="edge">
<title>ChartPanelSummaryComponent&#45;&gt;ECommerceModule</title>
<path fill="none" stroke="#000000" d="M5500,-122.308C5500,-142.1455 5500,-171 5500,-171 5500,-171 3807.7204,-171 3807.7204,-171"/>
<polygon fill="#000000" stroke="#000000" points="3807.7205,-167.5001 3797.7204,-171 3807.7204,-174.5001 3807.7205,-167.5001"/>
</g>
<!-- OrdersChartComponent -->
<g id="node9" class="node">
<title>OrdersChartComponent</title>
<polygon fill="#ffffb3" stroke="#000000" points="5383.0226,-122 5232.9774,-122 5232.9774,-86 5383.0226,-86 5383.0226,-122"/>
<text text-anchor="middle" x="5308" y="-99.8" font-family="Times,serif" font-size="14.00" fill="#000000">OrdersChartComponent</text>
</g>
<!-- OrdersChartComponent&#45;&gt;ECommerceModule -->
<g id="edge9" class="edge">
<title>OrdersChartComponent&#45;&gt;ECommerceModule</title>
<path fill="none" stroke="#000000" d="M5308,-122.1686C5308,-141.0898 5308,-168 5308,-168 5308,-168 3807.6782,-168 3807.6782,-168"/>
<polygon fill="#000000" stroke="#000000" points="3807.6782,-164.5001 3797.6782,-168 3807.6781,-171.5001 3807.6782,-164.5001"/>
</g>
<!-- ProfitChartComponent -->
<g id="node10" class="node">
<title>ProfitChartComponent</title>
<polygon fill="#ffffb3" stroke="#000000" points="5215.3202,-122 5070.6798,-122 5070.6798,-86 5215.3202,-86 5215.3202,-122"/>
<text text-anchor="middle" x="5143" y="-99.8" font-family="Times,serif" font-size="14.00" fill="#000000">ProfitChartComponent</text>
</g>
<!-- ProfitChartComponent&#45;&gt;ECommerceModule -->
<g id="edge10" class="edge">
<title>ProfitChartComponent&#45;&gt;ECommerceModule</title>
<path fill="none" stroke="#000000" d="M5143,-122.2667C5143,-140.5552 5143,-166 5143,-166 5143,-166 3807.7133,-166 3807.7133,-166"/>
<polygon fill="#000000" stroke="#000000" points="3807.7133,-162.5001 3797.7133,-166 3807.7132,-169.5001 3807.7133,-162.5001"/>
</g>
<!-- StatsCardBackComponent -->
<g id="node11" class="node">
<title>StatsCardBackComponent</title>
<polygon fill="#ffffb3" stroke="#000000" points="5053.0337,-122 4888.9663,-122 4888.9663,-86 5053.0337,-86 5053.0337,-122"/>
<text text-anchor="middle" x="4971" y="-99.8" font-family="Times,serif" font-size="14.00" fill="#000000">StatsCardBackComponent</text>
</g>
<!-- StatsCardBackComponent&#45;&gt;ECommerceModule -->
<g id="edge11" class="edge">
<title>StatsCardBackComponent&#45;&gt;ECommerceModule</title>
<path fill="none" stroke="#000000" d="M4971,-122.002C4971,-139.6754 4971,-164 4971,-164 4971,-164 3807.8172,-164 3807.8172,-164"/>
<polygon fill="#000000" stroke="#000000" points="3807.8172,-160.5001 3797.8172,-164 3807.8172,-167.5001 3807.8172,-160.5001"/>
</g>
<!-- TrafficRevealCardComponent -->
<g id="node12" class="node">
<title>TrafficRevealCardComponent</title>
<polygon fill="#ffffb3" stroke="#000000" points="4871.2696,-122 4684.7304,-122 4684.7304,-86 4871.2696,-86 4871.2696,-122"/>
<text text-anchor="middle" x="4778" y="-99.8" font-family="Times,serif" font-size="14.00" fill="#000000">TrafficRevealCardComponent</text>
</g>
<!-- TrafficRevealCardComponent&#45;&gt;ECommerceModule -->
<g id="edge12" class="edge">
<title>TrafficRevealCardComponent&#45;&gt;ECommerceModule</title>
<path fill="none" stroke="#000000" d="M4778,-122.0336C4778,-139.0597 4778,-162 4778,-162 4778,-162 3807.5808,-162 3807.5808,-162"/>
<polygon fill="#000000" stroke="#000000" points="3807.5808,-158.5001 3797.5808,-162 3807.5808,-165.5001 3807.5808,-158.5001"/>
</g>
<!-- TrafficBarChartComponent -->
<g id="node13" class="node">
<title>TrafficBarChartComponent</title>
<polygon fill="#ffffb3" stroke="#000000" points="4666.5015,-122 4495.4985,-122 4495.4985,-86 4666.5015,-86 4666.5015,-122"/>
<text text-anchor="middle" x="4581" y="-99.8" font-family="Times,serif" font-size="14.00" fill="#000000">TrafficBarChartComponent</text>
</g>
<!-- TrafficBarChartComponent&#45;&gt;ECommerceModule -->
<g id="edge13" class="edge">
<title>TrafficBarChartComponent&#45;&gt;ECommerceModule</title>
<path fill="none" stroke="#000000" d="M4581,-122.027C4581,-138.3976 4581,-160 4581,-160 4581,-160 3807.7831,-160 3807.7831,-160"/>
<polygon fill="#000000" stroke="#000000" points="3807.7831,-156.5001 3797.7831,-160 3807.783,-163.5001 3807.7831,-156.5001"/>
</g>
<!-- TrafficFrontCardComponent -->
<g id="node14" class="node">
<title>TrafficFrontCardComponent</title>
<polygon fill="#ffffb3" stroke="#000000" points="4476.7324,-122 4299.2676,-122 4299.2676,-86 4476.7324,-86 4476.7324,-122"/>
<text text-anchor="middle" x="4388" y="-99.8" font-family="Times,serif" font-size="14.00" fill="#000000">TrafficFrontCardComponent</text>
</g>
<!-- TrafficFrontCardComponent&#45;&gt;ECommerceModule -->
<g id="edge14" class="edge">
<title>TrafficFrontCardComponent&#45;&gt;ECommerceModule</title>
<path fill="none" stroke="#000000" d="M4388,-122.2819C4388,-137.9478 4388,-158 4388,-158 4388,-158 3807.5965,-158 3807.5965,-158"/>
<polygon fill="#000000" stroke="#000000" points="3807.5965,-154.5001 3797.5965,-158 3807.5965,-161.5001 3807.5965,-154.5001"/>
</g>
<!-- TrafficBackCardComponent -->
<g id="node15" class="node">
<title>TrafficBackCardComponent</title>
<polygon fill="#ffffb3" stroke="#000000" points="4281.1643,-122 4104.8357,-122 4104.8357,-86 4281.1643,-86 4281.1643,-122"/>
<text text-anchor="middle" x="4193" y="-99.8" font-family="Times,serif" font-size="14.00" fill="#000000">TrafficBackCardComponent</text>
</g>
<!-- TrafficBackCardComponent&#45;&gt;ECommerceModule -->
<g id="edge15" class="edge">
<title>TrafficBackCardComponent&#45;&gt;ECommerceModule</title>
<path fill="none" stroke="#000000" d="M4193,-122.1871C4193,-137.1824 4193,-156 4193,-156 4193,-156 3807.9311,-156 3807.9311,-156"/>
<polygon fill="#000000" stroke="#000000" points="3807.9312,-152.5001 3797.9311,-156 3807.9311,-159.5001 3807.9312,-152.5001"/>
</g>
<!-- TrafficBarComponent -->
<g id="node16" class="node">
<title>TrafficBarComponent</title>
<polygon fill="#ffffb3" stroke="#000000" points="4087.399,-122 3946.601,-122 3946.601,-86 4087.399,-86 4087.399,-122"/>
<text text-anchor="middle" x="4017" y="-99.8" font-family="Times,serif" font-size="14.00" fill="#000000">TrafficBarComponent</text>
</g>
<!-- TrafficBarComponent&#45;&gt;ECommerceModule -->
<g id="edge16" class="edge">
<title>TrafficBarComponent&#45;&gt;ECommerceModule</title>
<path fill="none" stroke="#000000" d="M4017,-122.0511C4017,-136.373 4017,-154 4017,-154 4017,-154 3807.7994,-154 3807.7994,-154"/>
<polygon fill="#000000" stroke="#000000" points="3807.7994,-150.5001 3797.7994,-154 3807.7993,-157.5001 3807.7994,-150.5001"/>
</g>
<!-- TrafficCardsHeaderComponent -->
<g id="node17" class="node">
<title>TrafficCardsHeaderComponent</title>
<polygon fill="#ffffb3" stroke="#000000" points="3928.7542,-122 3735.2458,-122 3735.2458,-86 3928.7542,-86 3928.7542,-122"/>
<text text-anchor="middle" x="3832" y="-99.8" font-family="Times,serif" font-size="14.00" fill="#000000">TrafficCardsHeaderComponent</text>
</g>
<!-- TrafficCardsHeaderComponent&#45;&gt;ECommerceModule -->
<g id="edge17" class="edge">
<title>TrafficCardsHeaderComponent&#45;&gt;ECommerceModule</title>
<path fill="none" stroke="#000000" d="M3766.5677,-122.1061C3766.5677,-122.1061 3766.5677,-140.991 3766.5677,-140.991"/>
<polygon fill="#000000" stroke="#000000" points="3763.0677,-140.9909 3766.5677,-150.991 3770.0677,-140.991 3763.0677,-140.9909"/>
</g>
<!-- CountryOrdersComponent -->
<g id="node18" class="node">
<title>CountryOrdersComponent</title>
<polygon fill="#ffffb3" stroke="#000000" points="3717.8075,-122 3552.1925,-122 3552.1925,-86 3717.8075,-86 3717.8075,-122"/>
<text text-anchor="middle" x="3635" y="-99.8" font-family="Times,serif" font-size="14.00" fill="#000000">CountryOrdersComponent</text>
</g>
<!-- CountryOrdersComponent&#45;&gt;ECommerceModule -->
<g id="edge18" class="edge">
<title>CountryOrdersComponent&#45;&gt;ECommerceModule</title>
<path fill="none" stroke="#000000" d="M3692.9457,-122.1061C3692.9457,-122.1061 3692.9457,-140.991 3692.9457,-140.991"/>
<polygon fill="#000000" stroke="#000000" points="3689.4457,-140.9909 3692.9457,-150.991 3696.4457,-140.991 3689.4457,-140.9909"/>
</g>
<!-- CountryOrdersMapComponent -->
<g id="node19" class="node">
<title>CountryOrdersMapComponent</title>
<polygon fill="#ffffb3" stroke="#000000" points="3534.4664,-122 3343.5336,-122 3343.5336,-86 3534.4664,-86 3534.4664,-122"/>
<text text-anchor="middle" x="3439" y="-99.8" font-family="Times,serif" font-size="14.00" fill="#000000">CountryOrdersMapComponent</text>
</g>
<!-- CountryOrdersMapComponent&#45;&gt;ECommerceModule -->
<g id="edge19" class="edge">
<title>CountryOrdersMapComponent&#45;&gt;ECommerceModule</title>
<path fill="none" stroke="#000000" d="M3439,-122.0511C3439,-136.373 3439,-154 3439,-154 3439,-154 3658.1165,-154 3658.1165,-154"/>
<polygon fill="#000000" stroke="#000000" points="3658.1165,-157.5001 3668.1165,-154 3658.1165,-150.5001 3658.1165,-157.5001"/>
</g>
<!-- CountryOrdersChartComponent -->
<g id="node20" class="node">
<title>CountryOrdersChartComponent</title>
<polygon fill="#ffffb3" stroke="#000000" points="3325.41,-122 3128.59,-122 3128.59,-86 3325.41,-86 3325.41,-122"/>
<text text-anchor="middle" x="3227" y="-99.8" font-family="Times,serif" font-size="14.00" fill="#000000">CountryOrdersChartComponent</text>
</g>
<!-- CountryOrdersChartComponent&#45;&gt;ECommerceModule -->
<g id="edge20" class="edge">
<title>CountryOrdersChartComponent&#45;&gt;ECommerceModule</title>
<path fill="none" stroke="#000000" d="M3227,-122.1871C3227,-137.1824 3227,-156 3227,-156 3227,-156 3658.4008,-156 3658.4008,-156"/>
<polygon fill="#000000" stroke="#000000" points="3658.4008,-159.5001 3668.4008,-156 3658.4008,-152.5001 3658.4008,-159.5001"/>
</g>
<!-- ECommerceVisitorsAnalyticsComponent -->
<g id="node21" class="node">
<title>ECommerceVisitorsAnalyticsComponent</title>
<polygon fill="#ffffb3" stroke="#000000" points="3110.7878,-122 2861.2122,-122 2861.2122,-86 3110.7878,-86 3110.7878,-122"/>
<text text-anchor="middle" x="2986" y="-99.8" font-family="Times,serif" font-size="14.00" fill="#000000">ECommerceVisitorsAnalyticsComponent</text>
</g>
<!-- ECommerceVisitorsAnalyticsComponent&#45;&gt;ECommerceModule -->
<g id="edge21" class="edge">
<title>ECommerceVisitorsAnalyticsComponent&#45;&gt;ECommerceModule</title>
<path fill="none" stroke="#000000" d="M2986,-122.2819C2986,-137.9478 2986,-158 2986,-158 2986,-158 3658.3404,-158 3658.3404,-158"/>
<polygon fill="#000000" stroke="#000000" points="3658.3404,-161.5001 3668.3404,-158 3658.3403,-154.5001 3658.3404,-161.5001"/>
</g>
<!-- ECommerceVisitorsAnalyticsChartComponent -->
<g id="node22" class="node">
<title>ECommerceVisitorsAnalyticsChartComponent</title>
<polygon fill="#ffffb3" stroke="#000000" points="2843.3903,-122 2562.6097,-122 2562.6097,-86 2843.3903,-86 2843.3903,-122"/>
<text text-anchor="middle" x="2703" y="-99.8" font-family="Times,serif" font-size="14.00" fill="#000000">ECommerceVisitorsAnalyticsChartComponent</text>
</g>
<!-- ECommerceVisitorsAnalyticsChartComponent&#45;&gt;ECommerceModule -->
<g id="edge22" class="edge">
<title>ECommerceVisitorsAnalyticsChartComponent&#45;&gt;ECommerceModule</title>
<path fill="none" stroke="#000000" d="M2703,-122.027C2703,-138.3976 2703,-160 2703,-160 2703,-160 3658.1787,-160 3658.1787,-160"/>
<polygon fill="#000000" stroke="#000000" points="3658.1787,-163.5001 3668.1787,-160 3658.1787,-156.5001 3658.1787,-163.5001"/>
</g>
<!-- ECommerceVisitorsStatisticsComponent -->
<g id="node23" class="node">
<title>ECommerceVisitorsStatisticsComponent</title>
<polygon fill="#ffffb3" stroke="#000000" points="2545.1895,-122 2298.8105,-122 2298.8105,-86 2545.1895,-86 2545.1895,-122"/>
<text text-anchor="middle" x="2422" y="-99.8" font-family="Times,serif" font-size="14.00" fill="#000000">ECommerceVisitorsStatisticsComponent</text>
</g>
<!-- ECommerceVisitorsStatisticsComponent&#45;&gt;ECommerceModule -->
<g id="edge23" class="edge">
<title>ECommerceVisitorsStatisticsComponent&#45;&gt;ECommerceModule</title>
<path fill="none" stroke="#000000" d="M2422,-122.0336C2422,-139.0597 2422,-162 2422,-162 2422,-162 3658.4345,-162 3658.4345,-162"/>
<polygon fill="#000000" stroke="#000000" points="3658.4345,-165.5001 3668.4345,-162 3658.4344,-158.5001 3658.4345,-165.5001"/>
</g>
<!-- ECommerceLegendChartComponent -->
<g id="node24" class="node">
<title>ECommerceLegendChartComponent</title>
<polygon fill="#ffffb3" stroke="#000000" points="2281.3917,-122 2056.6083,-122 2056.6083,-86 2281.3917,-86 2281.3917,-122"/>
<text text-anchor="middle" x="2169" y="-99.8" font-family="Times,serif" font-size="14.00" fill="#000000">ECommerceLegendChartComponent</text>
</g>
<!-- ECommerceLegendChartComponent&#45;&gt;ECommerceModule -->
<g id="edge24" class="edge">
<title>ECommerceLegendChartComponent&#45;&gt;ECommerceModule</title>
<path fill="none" stroke="#000000" d="M2169,-122.002C2169,-139.6754 2169,-164 2169,-164 2169,-164 3658.2817,-164 3658.2817,-164"/>
<polygon fill="#000000" stroke="#000000" points="3658.2817,-167.5001 3668.2817,-164 3658.2816,-160.5001 3658.2817,-167.5001"/>
</g>
<!-- ECommerceUserActivityComponent -->
<g id="node25" class="node">
<title>ECommerceUserActivityComponent</title>
<polygon fill="#ffffb3" stroke="#000000" points="2038.6175,-122 1815.3825,-122 1815.3825,-86 2038.6175,-86 2038.6175,-122"/>
<text text-anchor="middle" x="1927" y="-99.8" font-family="Times,serif" font-size="14.00" fill="#000000">ECommerceUserActivityComponent</text>
</g>
<!-- ECommerceUserActivityComponent&#45;&gt;ECommerceModule -->
<g id="edge25" class="edge">
<title>ECommerceUserActivityComponent&#45;&gt;ECommerceModule</title>
<path fill="none" stroke="#000000" d="M1927,-122.2667C1927,-140.5552 1927,-166 1927,-166 1927,-166 3658.4575,-166 3658.4575,-166"/>
<polygon fill="#000000" stroke="#000000" points="3658.4576,-169.5001 3668.4575,-166 3658.4575,-162.5001 3658.4576,-169.5001"/>
</g>
<!-- ECommerceProgressSectionComponent -->
<g id="node26" class="node">
<title>ECommerceProgressSectionComponent</title>
<polygon fill="#ffffb3" stroke="#000000" points="1796.5083,-122 1555.4917,-122 1555.4917,-86 1796.5083,-86 1796.5083,-122"/>
<text text-anchor="middle" x="1676" y="-99.8" font-family="Times,serif" font-size="14.00" fill="#000000">ECommerceProgressSectionComponent</text>
</g>
<!-- ECommerceProgressSectionComponent&#45;&gt;ECommerceModule -->
<g id="edge26" class="edge">
<title>ECommerceProgressSectionComponent&#45;&gt;ECommerceModule</title>
<path fill="none" stroke="#000000" d="M1676,-122.1686C1676,-141.0898 1676,-168 1676,-168 1676,-168 3658.327,-168 3658.327,-168"/>
<polygon fill="#000000" stroke="#000000" points="3658.327,-171.5001 3668.327,-168 3658.327,-164.5001 3658.327,-171.5001"/>
</g>
<!-- SlideOutComponent -->
<g id="node27" class="node">
<title>SlideOutComponent</title>
<polygon fill="#ffffb3" stroke="#000000" points="1537.608,-122 1406.392,-122 1406.392,-86 1537.608,-86 1537.608,-122"/>
<text text-anchor="middle" x="1472" y="-99.8" font-family="Times,serif" font-size="14.00" fill="#000000">SlideOutComponent</text>
</g>
<!-- SlideOutComponent&#45;&gt;ECommerceModule -->
<g id="edge27" class="edge">
<title>SlideOutComponent&#45;&gt;ECommerceModule</title>
<path fill="none" stroke="#000000" d="M1472,-122.308C1472,-142.1455 1472,-171 1472,-171 1472,-171 3658.3742,-171 3658.3742,-171"/>
<polygon fill="#000000" stroke="#000000" points="3658.3742,-174.5001 3668.3742,-171 3658.3742,-167.5001 3658.3742,-174.5001"/>
</g>
<!-- EarningCardComponent -->
<g id="node28" class="node">
<title>EarningCardComponent</title>
<polygon fill="#ffffb3" stroke="#000000" points="1388.3627,-122 1235.6373,-122 1235.6373,-86 1388.3627,-86 1388.3627,-122"/>
<text text-anchor="middle" x="1312" y="-99.8" font-family="Times,serif" font-size="14.00" fill="#000000">EarningCardComponent</text>
</g>
<!-- EarningCardComponent&#45;&gt;ECommerceModule -->
<g id="edge28" class="edge">
<title>EarningCardComponent&#45;&gt;ECommerceModule</title>
<path fill="none" stroke="#000000" d="M1312,-122.1289C1312,-142.5724 1312,-173 1312,-173 1312,-173 3658.2441,-173 3658.2441,-173"/>
<polygon fill="#000000" stroke="#000000" points="3658.2441,-176.5001 3668.2441,-173 3658.2441,-169.5001 3658.2441,-176.5001"/>
</g>
<!-- EarningCardFrontComponent -->
<g id="node29" class="node">
<title>EarningCardFrontComponent</title>
<polygon fill="#ffffb3" stroke="#000000" points="1217.6965,-122 1034.3035,-122 1034.3035,-86 1217.6965,-86 1217.6965,-122"/>
<text text-anchor="middle" x="1126" y="-99.8" font-family="Times,serif" font-size="14.00" fill="#000000">EarningCardFrontComponent</text>
</g>
<!-- EarningCardFrontComponent&#45;&gt;ECommerceModule -->
<g id="edge29" class="edge">
<title>EarningCardFrontComponent&#45;&gt;ECommerceModule</title>
<path fill="none" stroke="#000000" d="M1126,-122.2843C1126,-143.3211 1126,-175 1126,-175 1126,-175 3658.2321,-175 3658.2321,-175"/>
<polygon fill="#000000" stroke="#000000" points="3658.2321,-178.5001 3668.2321,-175 3658.2321,-171.5001 3658.2321,-178.5001"/>
</g>
<!-- EarningCardBackComponent -->
<g id="node30" class="node">
<title>EarningCardBackComponent</title>
<polygon fill="#ffffb3" stroke="#000000" points="1016.6288,-122 835.3712,-122 835.3712,-86 1016.6288,-86 1016.6288,-122"/>
<text text-anchor="middle" x="926" y="-99.8" font-family="Times,serif" font-size="14.00" fill="#000000">EarningCardBackComponent</text>
</g>
<!-- EarningCardBackComponent&#45;&gt;ECommerceModule -->
<g id="edge30" class="edge">
<title>EarningCardBackComponent&#45;&gt;ECommerceModule</title>
<path fill="none" stroke="#000000" d="M926,-122.0449C926,-143.6623 926,-177 926,-177 926,-177 3658.4238,-177 3658.4238,-177"/>
<polygon fill="#000000" stroke="#000000" points="3658.4238,-180.5001 3668.4238,-177 3658.4237,-173.5001 3658.4238,-180.5001"/>
</g>
<!-- EarningPieChartComponent -->
<g id="node31" class="node">
<title>EarningPieChartComponent</title>
<polygon fill="#ffffb3" stroke="#000000" points="817.1414,-122 642.8586,-122 642.8586,-86 817.1414,-86 817.1414,-122"/>
<text text-anchor="middle" x="730" y="-99.8" font-family="Times,serif" font-size="14.00" fill="#000000">EarningPieChartComponent</text>
</g>
<!-- EarningPieChartComponent&#45;&gt;ECommerceModule -->
<g id="edge31" class="edge">
<title>EarningPieChartComponent&#45;&gt;ECommerceModule</title>
<path fill="none" stroke="#000000" d="M730,-122.1554C730,-144.3519 730,-179 730,-179 730,-179 3658.1888,-179 3658.1888,-179"/>
<polygon fill="#000000" stroke="#000000" points="3658.1888,-182.5001 3668.1888,-179 3658.1888,-175.5001 3658.1888,-182.5001"/>
</g>
<!-- EarningLiveUpdateChartComponent -->
<g id="node32" class="node">
<title>EarningLiveUpdateChartComponent</title>
<polygon fill="#ffffb3" stroke="#000000" points="624.3375,-122 401.6625,-122 401.6625,-86 624.3375,-86 624.3375,-122"/>
<text text-anchor="middle" x="513" y="-99.8" font-family="Times,serif" font-size="14.00" fill="#000000">EarningLiveUpdateChartComponent</text>
</g>
<!-- EarningLiveUpdateChartComponent&#45;&gt;ECommerceModule -->
<g id="edge32" class="edge">
<title>EarningLiveUpdateChartComponent&#45;&gt;ECommerceModule</title>
<path fill="none" stroke="#000000" d="M513,-122.2479C513,-145.0179 513,-181 513,-181 513,-181 3658.3159,-181 3658.3159,-181"/>
<polygon fill="#000000" stroke="#000000" points="3658.316,-184.5001 3668.3159,-181 3658.3159,-177.5001 3658.316,-184.5001"/>
</g>
<!-- ThemeModule -->
<g id="node34" class="node">
<title>ThemeModule</title>
<polygon fill="#8dd3c7" stroke="#000000" points="378.4231,-122 375.4231,-126 354.4231,-126 351.4231,-122 279.5769,-122 279.5769,-86 378.4231,-86 378.4231,-122"/>
<text text-anchor="middle" x="329" y="-99.8" font-family="Times,serif" font-size="14.00" fill="#000000">ThemeModule</text>
</g>
<!-- ThemeModule&#45;&gt;ECommerceModule -->
<g id="edge33" class="edge">
<title>ThemeModule&#45;&gt;ECommerceModule</title>
<path fill="none" stroke="#000000" d="M329,-122.3228C329,-145.6602 329,-183 329,-183 329,-183 3658.4151,-183 3658.4151,-183"/>
<polygon fill="#000000" stroke="#000000" points="3658.4152,-186.5001 3668.4151,-183 3658.4151,-179.5001 3658.4152,-186.5001"/>
</g>
<!-- CountryOrdersMapService -->
<g id="node35" class="node">
<title>CountryOrdersMapService</title>
<ellipse fill="#fdb462" stroke="#000000" cx="140" cy="-104" rx="115.731" ry="18"/>
<text text-anchor="middle" x="140" y="-99.8" font-family="Times,serif" font-size="14.00" fill="#000000">CountryOrdersMapService</text>
</g>
<!-- CountryOrdersMapService&#45;&gt;ECommerceModule -->
<g id="edge34" class="edge">
<title>CountryOrdersMapService&#45;&gt;ECommerceModule</title>
<path fill="none" stroke="#000000" d="M140,-122.3802C140,-146.2785 140,-185 140,-185 140,-185 3658.3429,-185 3658.3429,-185"/>
<polygon fill="#000000" stroke="#000000" points="3658.3429,-188.5001 3668.3429,-185 3658.3429,-181.5001 3658.3429,-188.5001"/>
</g>
</g>
</svg>
