<?xml version="1.0" encoding="UTF-8" standalone="no"?>
<!DOCTYPE svg PUBLIC "-//W3C//DTD SVG 1.1//EN"
 "http://www.w3.org/Graphics/SVG/1.1/DTD/svg11.dtd">
<!-- Generated by graphviz version 2.40.1 (20161225.0304)
 -->
<!-- Title: dependencies Pages: 1 -->
<svg width="504pt" height="211pt"
 viewBox="0.00 0.00 504.00 211.00" xmlns="http://www.w3.org/2000/svg" xmlns:xlink="http://www.w3.org/1999/xlink">
<g id="graph0" class="graph" transform="scale(1 1) rotate(0) translate(4 207)">
<title>dependencies</title>
<polygon fill="#ffffff" stroke="transparent" points="-4,4 -4,-207 500,-207 500,4 -4,4"/>
<text text-anchor="start" x="227.0091" y="-42.4" font-family="sans-serif" font-weight="bold" font-size="14.00" fill="#000000">Legend</text>
<polygon fill="#ffffb3" stroke="transparent" points="14,-10 14,-30 34,-30 34,-10 14,-10"/>
<text text-anchor="start" x="37.629" y="-15.4" font-family="sans-serif" font-size="14.00" fill="#000000"> &#160;Declarations</text>
<polygon fill="#8dd3c7" stroke="transparent" points="127,-10 127,-30 147,-30 147,-10 127,-10"/>
<text text-anchor="start" x="150.7251" y="-15.4" font-family="sans-serif" font-size="14.00" fill="#000000"> &#160;Module</text>
<polygon fill="#80b1d3" stroke="transparent" points="213,-10 213,-30 233,-30 233,-10 213,-10"/>
<text text-anchor="start" x="236.7812" y="-15.4" font-family="sans-serif" font-size="14.00" fill="#000000"> &#160;Bootstrap</text>
<polygon fill="#fdb462" stroke="transparent" points="310,-10 310,-30 330,-30 330,-10 310,-10"/>
<text text-anchor="start" x="333.6732" y="-15.4" font-family="sans-serif" font-size="14.00" fill="#000000"> &#160;Providers</text>
<polygon fill="#fb8072" stroke="transparent" points="406,-10 406,-30 426,-30 426,-10 406,-10"/>
<text text-anchor="start" x="429.7258" y="-15.4" font-family="sans-serif" font-size="14.00" fill="#000000"> &#160;Exports</text>
<g id="clust1" class="cluster">
<title>cluster_ChartsModule</title>
<polygon fill="none" stroke="#000000" stroke-dasharray="1,5" points="103,-70 103,-195 393,-195 393,-70 103,-70"/>
</g>
<g id="clust3" class="cluster">
<title>cluster_ChartsModule_imports</title>
<polygon fill="none" stroke="#000000" points="111,-78 111,-130 385,-130 385,-78 111,-78"/>
</g>
<!-- ThemeModule -->
<g id="node1" class="node">
<title>ThemeModule</title>
<polygon fill="#8dd3c7" stroke="#000000" points="377.4231,-122 374.4231,-126 353.4231,-126 350.4231,-122 278.5769,-122 278.5769,-86 377.4231,-86 377.4231,-122"/>
<text text-anchor="middle" x="328" y="-99.8" font-family="Times,serif" font-size="14.00" fill="#000000">ThemeModule</text>
</g>
<!-- ChartsModule -->
<g id="node3" class="node">
<title>ChartsModule</title>
<polygon fill="#8dd3c7" stroke="#000000" points="307.0968,-187 304.0968,-191 283.0968,-191 280.0968,-187 210.9032,-187 210.9032,-151 307.0968,-151 307.0968,-187"/>
<text text-anchor="middle" x="259" y="-164.8" font-family="Times,serif" font-size="14.00" fill="#000000">ChartsModule</text>
</g>
<!-- ThemeModule&#45;&gt;ChartsModule -->
<g id="edge1" class="edge">
<title>ThemeModule&#45;&gt;ChartsModule</title>
<path fill="none" stroke="#000000" d="M292.9187,-122.1061C292.9187,-122.1061 292.9187,-140.991 292.9187,-140.991"/>
<polygon fill="#000000" stroke="#000000" points="289.4187,-140.9909 292.9187,-150.991 296.4187,-140.991 289.4187,-140.9909"/>
</g>
<!-- ChartsRoutingModule -->
<g id="node2" class="node">
<title>ChartsRoutingModule</title>
<polygon fill="#8dd3c7" stroke="#000000" points="260.7148,-122 257.7148,-126 236.7148,-126 233.7148,-122 119.2852,-122 119.2852,-86 260.7148,-86 260.7148,-122"/>
<text text-anchor="middle" x="190" y="-99.8" font-family="Times,serif" font-size="14.00" fill="#000000">ChartsRoutingModule</text>
</g>
<!-- ChartsRoutingModule&#45;&gt;ChartsModule -->
<g id="edge2" class="edge">
<title>ChartsRoutingModule&#45;&gt;ChartsModule</title>
<path fill="none" stroke="#000000" d="M235.7795,-122.1061C235.7795,-122.1061 235.7795,-140.991 235.7795,-140.991"/>
<polygon fill="#000000" stroke="#000000" points="232.2795,-140.9909 235.7795,-150.991 239.2795,-140.991 232.2795,-140.9909"/>
</g>
</g>
</svg>
