<?xml version="1.0" encoding="UTF-8" standalone="no"?>
<!DOCTYPE svg PUBLIC "-//W3C//DTD SVG 1.1//EN"
 "http://www.w3.org/Graphics/SVG/1.1/DTD/svg11.dtd">
<!-- Generated by graphviz version 2.40.1 (20161225.0304)
 -->
<!-- Title: dependencies Pages: 1 -->
<svg width="3991pt" height="211pt"
 viewBox="0.00 0.00 3991.00 211.00" xmlns="http://www.w3.org/2000/svg" xmlns:xlink="http://www.w3.org/1999/xlink">
<g id="graph0" class="graph" transform="scale(1 1) rotate(0) translate(4 207)">
<title>dependencies</title>
<polygon fill="#ffffff" stroke="transparent" points="-4,4 -4,-207 3987,-207 3987,4 -4,4"/>
<text text-anchor="start" x="1970.5091" y="-42.4" font-family="sans-serif" font-weight="bold" font-size="14.00" fill="#000000">Legend</text>
<polygon fill="#ffffb3" stroke="transparent" points="1757.5,-10 1757.5,-30 1777.5,-30 1777.5,-10 1757.5,-10"/>
<text text-anchor="start" x="1781.129" y="-15.4" font-family="sans-serif" font-size="14.00" fill="#000000"> &#160;Declarations</text>
<polygon fill="#8dd3c7" stroke="transparent" points="1870.5,-10 1870.5,-30 1890.5,-30 1890.5,-10 1870.5,-10"/>
<text text-anchor="start" x="1894.2251" y="-15.4" font-family="sans-serif" font-size="14.00" fill="#000000"> &#160;Module</text>
<polygon fill="#80b1d3" stroke="transparent" points="1956.5,-10 1956.5,-30 1976.5,-30 1976.5,-10 1956.5,-10"/>
<text text-anchor="start" x="1980.2812" y="-15.4" font-family="sans-serif" font-size="14.00" fill="#000000"> &#160;Bootstrap</text>
<polygon fill="#fdb462" stroke="transparent" points="2053.5,-10 2053.5,-30 2073.5,-30 2073.5,-10 2053.5,-10"/>
<text text-anchor="start" x="2077.1732" y="-15.4" font-family="sans-serif" font-size="14.00" fill="#000000"> &#160;Providers</text>
<polygon fill="#fb8072" stroke="transparent" points="2149.5,-10 2149.5,-30 2169.5,-30 2169.5,-10 2149.5,-10"/>
<text text-anchor="start" x="2173.2258" y="-15.4" font-family="sans-serif" font-size="14.00" fill="#000000"> &#160;Exports</text>
<g id="clust1" class="cluster">
<title>cluster_MockDataModule</title>
<polygon fill="none" stroke="#000000" stroke-dasharray="1,5" points="8,-70 8,-195 3975,-195 3975,-70 8,-70"/>
</g>
<g id="clust6" class="cluster">
<title>cluster_MockDataModule_providers</title>
<polygon fill="none" stroke="#000000" points="16,-78 16,-130 3967,-130 3967,-78 16,-78"/>
</g>
<!-- CountryOrderService -->
<g id="node1" class="node">
<title>CountryOrderService</title>
<ellipse fill="#fdb462" stroke="#000000" cx="3865" cy="-104" rx="94.3215" ry="18"/>
<text text-anchor="middle" x="3865" y="-99.8" font-family="Times,serif" font-size="14.00" fill="#000000">CountryOrderService</text>
</g>
<!-- MockDataModule -->
<g id="node21" class="node">
<title>MockDataModule</title>
<polygon fill="#8dd3c7" stroke="#000000" points="2010.136,-187 2007.136,-191 1986.136,-191 1983.136,-187 1891.864,-187 1891.864,-151 2010.136,-151 2010.136,-187"/>
<text text-anchor="middle" x="1951" y="-164.8" font-family="Times,serif" font-size="14.00" fill="#000000">MockDataModule</text>
</g>
<!-- CountryOrderService&#45;&gt;MockDataModule -->
<g id="edge1" class="edge">
<title>CountryOrderService&#45;&gt;MockDataModule</title>
<path fill="none" stroke="#000000" d="M3865,-122.1532C3865,-145.7566 3865,-184 3865,-184 3865,-184 2020.381,-184 2020.381,-184"/>
<polygon fill="#000000" stroke="#000000" points="2020.3811,-180.5001 2010.381,-184 2020.381,-187.5001 2020.3811,-180.5001"/>
</g>
<!-- EarningService -->
<g id="node2" class="node">
<title>EarningService</title>
<ellipse fill="#fdb462" stroke="#000000" cx="3682" cy="-104" rx="70.6239" ry="18"/>
<text text-anchor="middle" x="3682" y="-99.8" font-family="Times,serif" font-size="14.00" fill="#000000">EarningService</text>
</g>
<!-- EarningService&#45;&gt;MockDataModule -->
<g id="edge2" class="edge">
<title>EarningService&#45;&gt;MockDataModule</title>
<path fill="none" stroke="#000000" d="M3682,-122.0109C3682,-144.4852 3682,-180 3682,-180 3682,-180 2020.5849,-180 2020.5849,-180"/>
<polygon fill="#000000" stroke="#000000" points="2020.585,-176.5001 2010.5849,-180 2020.5849,-183.5001 2020.585,-176.5001"/>
</g>
<!-- ElectricityService -->
<g id="node3" class="node">
<title>ElectricityService</title>
<ellipse fill="#fdb462" stroke="#000000" cx="3513" cy="-104" rx="80.4267" ry="18"/>
<text text-anchor="middle" x="3513" y="-99.8" font-family="Times,serif" font-size="14.00" fill="#000000">ElectricityService</text>
</g>
<!-- ElectricityService&#45;&gt;MockDataModule -->
<g id="edge3" class="edge">
<title>ElectricityService&#45;&gt;MockDataModule</title>
<path fill="none" stroke="#000000" d="M3513,-122.0449C3513,-143.6623 3513,-177 3513,-177 3513,-177 2020.3249,-177 2020.3249,-177"/>
<polygon fill="#000000" stroke="#000000" points="2020.3249,-173.5001 2010.3249,-177 2020.3248,-180.5001 2020.3249,-173.5001"/>
</g>
<!-- OrdersChartService -->
<g id="node4" class="node">
<title>OrdersChartService</title>
<ellipse fill="#fdb462" stroke="#000000" cx="3327" cy="-104" rx="87.9355" ry="18"/>
<text text-anchor="middle" x="3327" y="-99.8" font-family="Times,serif" font-size="14.00" fill="#000000">OrdersChartService</text>
</g>
<!-- OrdersChartService&#45;&gt;MockDataModule -->
<g id="edge4" class="edge">
<title>OrdersChartService&#45;&gt;MockDataModule</title>
<path fill="none" stroke="#000000" d="M3327,-122.1289C3327,-142.5724 3327,-173 3327,-173 3327,-173 2020.5667,-173 2020.5667,-173"/>
<polygon fill="#000000" stroke="#000000" points="2020.5667,-169.5001 2010.5667,-173 2020.5666,-176.5001 2020.5667,-169.5001"/>
</g>
<!-- OrdersProfitChartService -->
<g id="node5" class="node">
<title>OrdersProfitChartService</title>
<ellipse fill="#fdb462" stroke="#000000" cx="3112" cy="-104" rx="109.9227" ry="18"/>
<text text-anchor="middle" x="3112" y="-99.8" font-family="Times,serif" font-size="14.00" fill="#000000">OrdersProfitChartService</text>
</g>
<!-- OrdersProfitChartService&#45;&gt;MockDataModule -->
<g id="edge5" class="edge">
<title>OrdersProfitChartService&#45;&gt;MockDataModule</title>
<path fill="none" stroke="#000000" d="M3112,-122.1061C3112,-141.3391 3112,-169 3112,-169 3112,-169 2020.1703,-169 2020.1703,-169"/>
<polygon fill="#000000" stroke="#000000" points="2020.1703,-165.5001 2010.1703,-169 2020.1703,-172.5001 2020.1703,-165.5001"/>
</g>
<!-- PeriodsService -->
<g id="node6" class="node">
<title>PeriodsService</title>
<ellipse fill="#fdb462" stroke="#000000" cx="2915" cy="-104" rx="68.9158" ry="18"/>
<text text-anchor="middle" x="2915" y="-99.8" font-family="Times,serif" font-size="14.00" fill="#000000">PeriodsService</text>
</g>
<!-- PeriodsService&#45;&gt;MockDataModule -->
<g id="edge6" class="edge">
<title>PeriodsService&#45;&gt;MockDataModule</title>
<path fill="none" stroke="#000000" d="M2915,-122.2667C2915,-140.5552 2915,-166 2915,-166 2915,-166 2020.2127,-166 2020.2127,-166"/>
<polygon fill="#000000" stroke="#000000" points="2020.2128,-162.5001 2010.2127,-166 2020.2127,-169.5001 2020.2128,-162.5001"/>
</g>
<!-- ProfitBarAnimationChartService -->
<g id="node7" class="node">
<title>ProfitBarAnimationChartService</title>
<ellipse fill="#fdb462" stroke="#000000" cx="2689" cy="-104" rx="138.8758" ry="18"/>
<text text-anchor="middle" x="2689" y="-99.8" font-family="Times,serif" font-size="14.00" fill="#000000">ProfitBarAnimationChartService</text>
</g>
<!-- ProfitBarAnimationChartService&#45;&gt;MockDataModule -->
<g id="edge7" class="edge">
<title>ProfitBarAnimationChartService&#45;&gt;MockDataModule</title>
<path fill="none" stroke="#000000" d="M2689,-122.0336C2689,-139.0597 2689,-162 2689,-162 2689,-162 2020.1461,-162 2020.1461,-162"/>
<polygon fill="#000000" stroke="#000000" points="2020.1462,-158.5001 2010.1461,-162 2020.1461,-165.5001 2020.1462,-158.5001"/>
</g>
<!-- ProfitChartService -->
<g id="node8" class="node">
<title>ProfitChartService</title>
<ellipse fill="#fdb462" stroke="#000000" cx="2449" cy="-104" rx="83.3789" ry="18"/>
<text text-anchor="middle" x="2449" y="-99.8" font-family="Times,serif" font-size="14.00" fill="#000000">ProfitChartService</text>
</g>
<!-- ProfitChartService&#45;&gt;MockDataModule -->
<g id="edge8" class="edge">
<title>ProfitChartService&#45;&gt;MockDataModule</title>
<path fill="none" stroke="#000000" d="M2449,-122.0091C2449,-138.0494 2449,-159 2449,-159 2449,-159 2020.5758,-159 2020.5758,-159"/>
<polygon fill="#000000" stroke="#000000" points="2020.5758,-155.5001 2010.5758,-159 2020.5757,-162.5001 2020.5758,-155.5001"/>
</g>
<!-- SecurityCamerasService -->
<g id="node9" class="node">
<title>SecurityCamerasService</title>
<ellipse fill="#fdb462" stroke="#000000" cx="2242" cy="-104" rx="105.9112" ry="18"/>
<text text-anchor="middle" x="2242" y="-99.8" font-family="Times,serif" font-size="14.00" fill="#000000">SecurityCamerasService</text>
</g>
<!-- SecurityCamerasService&#45;&gt;MockDataModule -->
<g id="edge9" class="edge">
<title>SecurityCamerasService&#45;&gt;MockDataModule</title>
<path fill="none" stroke="#000000" d="M2242,-122.1243C2242,-136.7832 2242,-155 2242,-155 2242,-155 2020.2389,-155 2020.2389,-155"/>
<polygon fill="#000000" stroke="#000000" points="2020.239,-151.5001 2010.2389,-155 2020.2389,-158.5001 2020.239,-151.5001"/>
</g>
<!-- SmartTableService -->
<g id="node10" class="node">
<title>SmartTableService</title>
<ellipse fill="#fdb462" stroke="#000000" cx="2033" cy="-104" rx="85.085" ry="18"/>
<text text-anchor="middle" x="2033" y="-99.8" font-family="Times,serif" font-size="14.00" fill="#000000">SmartTableService</text>
</g>
<!-- SmartTableService&#45;&gt;MockDataModule -->
<g id="edge10" class="edge">
<title>SmartTableService&#45;&gt;MockDataModule</title>
<path fill="none" stroke="#000000" d="M1979.1376,-118.104C1979.1376,-118.104 1979.1376,-140.7209 1979.1376,-140.7209"/>
<polygon fill="#000000" stroke="#000000" points="1975.6377,-140.7209 1979.1376,-150.7209 1982.6377,-140.7209 1975.6377,-140.7209"/>
</g>
<!-- SolarService -->
<g id="node11" class="node">
<title>SolarService</title>
<ellipse fill="#fdb462" stroke="#000000" cx="1870" cy="-104" rx="60.2479" ry="18"/>
<text text-anchor="middle" x="1870" y="-99.8" font-family="Times,serif" font-size="14.00" fill="#000000">SolarService</text>
</g>
<!-- SolarService&#45;&gt;MockDataModule -->
<g id="edge11" class="edge">
<title>SolarService&#45;&gt;MockDataModule</title>
<path fill="none" stroke="#000000" d="M1911.0281,-117.468C1911.0281,-117.468 1911.0281,-140.8642 1911.0281,-140.8642"/>
<polygon fill="#000000" stroke="#000000" points="1907.5282,-140.8641 1911.0281,-150.8642 1914.5282,-140.8642 1907.5282,-140.8641"/>
</g>
<!-- StatsBarService -->
<g id="node12" class="node">
<title>StatsBarService</title>
<ellipse fill="#fdb462" stroke="#000000" cx="1719" cy="-104" rx="72.9237" ry="18"/>
<text text-anchor="middle" x="1719" y="-99.8" font-family="Times,serif" font-size="14.00" fill="#000000">StatsBarService</text>
</g>
<!-- StatsBarService&#45;&gt;MockDataModule -->
<g id="edge12" class="edge">
<title>StatsBarService&#45;&gt;MockDataModule</title>
<path fill="none" stroke="#000000" d="M1719,-122.1243C1719,-136.7832 1719,-155 1719,-155 1719,-155 1881.8563,-155 1881.8563,-155"/>
<polygon fill="#000000" stroke="#000000" points="1881.8564,-158.5001 1891.8563,-155 1881.8563,-151.5001 1881.8564,-158.5001"/>
</g>
<!-- StatsProgressBarService -->
<g id="node13" class="node">
<title>StatsProgressBarService</title>
<ellipse fill="#fdb462" stroke="#000000" cx="1522" cy="-104" rx="105.9286" ry="18"/>
<text text-anchor="middle" x="1522" y="-99.8" font-family="Times,serif" font-size="14.00" fill="#000000">StatsProgressBarService</text>
</g>
<!-- StatsProgressBarService&#45;&gt;MockDataModule -->
<g id="edge13" class="edge">
<title>StatsProgressBarService&#45;&gt;MockDataModule</title>
<path fill="none" stroke="#000000" d="M1522,-122.0091C1522,-138.0494 1522,-159 1522,-159 1522,-159 1881.7998,-159 1881.7998,-159"/>
<polygon fill="#000000" stroke="#000000" points="1881.7998,-162.5001 1891.7998,-159 1881.7998,-155.5001 1881.7998,-162.5001"/>
</g>
<!-- TemperatureHumidityService -->
<g id="node14" class="node">
<title>TemperatureHumidityService</title>
<ellipse fill="#fdb462" stroke="#000000" cx="1272" cy="-104" rx="126.1811" ry="18"/>
<text text-anchor="middle" x="1272" y="-99.8" font-family="Times,serif" font-size="14.00" fill="#000000">TemperatureHumidityService</text>
</g>
<!-- TemperatureHumidityService&#45;&gt;MockDataModule -->
<g id="edge14" class="edge">
<title>TemperatureHumidityService&#45;&gt;MockDataModule</title>
<path fill="none" stroke="#000000" d="M1272,-122.0336C1272,-139.0597 1272,-162 1272,-162 1272,-162 1881.635,-162 1881.635,-162"/>
<polygon fill="#000000" stroke="#000000" points="1881.635,-165.5001 1891.635,-162 1881.635,-158.5001 1881.635,-165.5001"/>
</g>
<!-- TrafficBarService -->
<g id="node15" class="node">
<title>TrafficBarService</title>
<ellipse fill="#fdb462" stroke="#000000" cx="1047" cy="-104" rx="80.9698" ry="18"/>
<text text-anchor="middle" x="1047" y="-99.8" font-family="Times,serif" font-size="14.00" fill="#000000">TrafficBarService</text>
</g>
<!-- TrafficBarService&#45;&gt;MockDataModule -->
<g id="edge15" class="edge">
<title>TrafficBarService&#45;&gt;MockDataModule</title>
<path fill="none" stroke="#000000" d="M1047,-122.2667C1047,-140.5552 1047,-166 1047,-166 1047,-166 1881.686,-166 1881.686,-166"/>
<polygon fill="#000000" stroke="#000000" points="1881.6861,-169.5001 1891.686,-166 1881.686,-162.5001 1881.6861,-169.5001"/>
</g>
<!-- TrafficChartService -->
<g id="node16" class="node">
<title>TrafficChartService</title>
<ellipse fill="#fdb462" stroke="#000000" cx="860" cy="-104" rx="88.494" ry="18"/>
<text text-anchor="middle" x="860" y="-99.8" font-family="Times,serif" font-size="14.00" fill="#000000">TrafficChartService</text>
</g>
<!-- TrafficChartService&#45;&gt;MockDataModule -->
<g id="edge16" class="edge">
<title>TrafficChartService&#45;&gt;MockDataModule</title>
<path fill="none" stroke="#000000" d="M860,-122.1061C860,-141.3391 860,-169 860,-169 860,-169 1881.5683,-169 1881.5683,-169"/>
<polygon fill="#000000" stroke="#000000" points="1881.5684,-172.5001 1891.5683,-169 1881.5683,-165.5001 1881.5684,-172.5001"/>
</g>
<!-- TrafficListService -->
<g id="node17" class="node">
<title>TrafficListService</title>
<ellipse fill="#fdb462" stroke="#000000" cx="672" cy="-104" rx="81.6307" ry="18"/>
<text text-anchor="middle" x="672" y="-99.8" font-family="Times,serif" font-size="14.00" fill="#000000">TrafficListService</text>
</g>
<!-- TrafficListService&#45;&gt;MockDataModule -->
<g id="edge17" class="edge">
<title>TrafficListService&#45;&gt;MockDataModule</title>
<path fill="none" stroke="#000000" d="M672,-122.1289C672,-142.5724 672,-173 672,-173 672,-173 1881.4522,-173 1881.4522,-173"/>
<polygon fill="#000000" stroke="#000000" points="1881.4522,-176.5001 1891.4522,-173 1881.4521,-169.5001 1881.4522,-176.5001"/>
</g>
<!-- UserActivityService -->
<g id="node18" class="node">
<title>UserActivityService</title>
<ellipse fill="#fdb462" stroke="#000000" cx="482" cy="-104" rx="89.7402" ry="18"/>
<text text-anchor="middle" x="482" y="-99.8" font-family="Times,serif" font-size="14.00" fill="#000000">UserActivityService</text>
</g>
<!-- UserActivityService&#45;&gt;MockDataModule -->
<g id="edge18" class="edge">
<title>UserActivityService&#45;&gt;MockDataModule</title>
<path fill="none" stroke="#000000" d="M482,-122.0449C482,-143.6623 482,-177 482,-177 482,-177 1881.594,-177 1881.594,-177"/>
<polygon fill="#000000" stroke="#000000" points="1881.5941,-180.5001 1891.594,-177 1881.594,-173.5001 1881.5941,-180.5001"/>
</g>
<!-- UserService -->
<g id="node19" class="node">
<title>UserService</title>
<ellipse fill="#fdb462" stroke="#000000" cx="316" cy="-104" rx="58.4415" ry="18"/>
<text text-anchor="middle" x="316" y="-99.8" font-family="Times,serif" font-size="14.00" fill="#000000">UserService</text>
</g>
<!-- UserService&#45;&gt;MockDataModule -->
<g id="edge19" class="edge">
<title>UserService&#45;&gt;MockDataModule</title>
<path fill="none" stroke="#000000" d="M316,-122.0109C316,-144.4852 316,-180 316,-180 316,-180 1881.8436,-180 1881.8436,-180"/>
<polygon fill="#000000" stroke="#000000" points="1881.8436,-183.5001 1891.8436,-180 1881.8435,-176.5001 1881.8436,-183.5001"/>
</g>
<!-- VisitorsAnalyticsService -->
<g id="node20" class="node">
<title>VisitorsAnalyticsService</title>
<ellipse fill="#fdb462" stroke="#000000" cx="132" cy="-104" rx="107.654" ry="18"/>
<text text-anchor="middle" x="132" y="-99.8" font-family="Times,serif" font-size="14.00" fill="#000000">VisitorsAnalyticsService</text>
</g>
<!-- VisitorsAnalyticsService&#45;&gt;MockDataModule -->
<g id="edge20" class="edge">
<title>VisitorsAnalyticsService&#45;&gt;MockDataModule</title>
<path fill="none" stroke="#000000" d="M132,-122.1532C132,-145.7566 132,-184 132,-184 132,-184 1881.7701,-184 1881.7701,-184"/>
<polygon fill="#000000" stroke="#000000" points="1881.7701,-187.5001 1891.7701,-184 1881.77,-180.5001 1881.7701,-187.5001"/>
</g>
</g>
</svg>
