<?xml version="1.0" encoding="UTF-8" standalone="no"?>
<!DOCTYPE svg PUBLIC "-//W3C//DTD SVG 1.1//EN"
 "http://www.w3.org/Graphics/SVG/1.1/DTD/svg11.dtd">
<!-- Generated by graphviz version 2.40.1 (20161225.0304)
 -->
<!-- Title: dependencies Pages: 1 -->
<svg width="6583pt" height="211pt"
 viewBox="0.00 0.00 6583.00 211.00" xmlns="http://www.w3.org/2000/svg" xmlns:xlink="http://www.w3.org/1999/xlink">
<g id="graph0" class="graph" transform="scale(1 1) rotate(0) translate(4 207)">
<title>dependencies</title>
<polygon fill="#ffffff" stroke="transparent" points="-4,4 -4,-207 6579,-207 6579,4 -4,4"/>
<text text-anchor="start" x="3266.5091" y="-42.4" font-family="sans-serif" font-weight="bold" font-size="14.00" fill="#000000">Legend</text>
<polygon fill="#ffffb3" stroke="transparent" points="3053.5,-10 3053.5,-30 3073.5,-30 3073.5,-10 3053.5,-10"/>
<text text-anchor="start" x="3077.129" y="-15.4" font-family="sans-serif" font-size="14.00" fill="#000000"> &#160;Declarations</text>
<polygon fill="#8dd3c7" stroke="transparent" points="3166.5,-10 3166.5,-30 3186.5,-30 3186.5,-10 3166.5,-10"/>
<text text-anchor="start" x="3190.2251" y="-15.4" font-family="sans-serif" font-size="14.00" fill="#000000"> &#160;Module</text>
<polygon fill="#80b1d3" stroke="transparent" points="3252.5,-10 3252.5,-30 3272.5,-30 3272.5,-10 3252.5,-10"/>
<text text-anchor="start" x="3276.2812" y="-15.4" font-family="sans-serif" font-size="14.00" fill="#000000"> &#160;Bootstrap</text>
<polygon fill="#fdb462" stroke="transparent" points="3349.5,-10 3349.5,-30 3369.5,-30 3369.5,-10 3349.5,-10"/>
<text text-anchor="start" x="3373.1732" y="-15.4" font-family="sans-serif" font-size="14.00" fill="#000000"> &#160;Providers</text>
<polygon fill="#fb8072" stroke="transparent" points="3445.5,-10 3445.5,-30 3465.5,-30 3465.5,-10 3445.5,-10"/>
<text text-anchor="start" x="3469.2258" y="-15.4" font-family="sans-serif" font-size="14.00" fill="#000000"> &#160;Exports</text>
<g id="clust1" class="cluster">
<title>cluster_ExtraComponentsModule</title>
<polygon fill="none" stroke="#000000" stroke-dasharray="1,5" points="8,-70 8,-195 6567,-195 6567,-70 8,-70"/>
</g>
<g id="clust2" class="cluster">
<title>cluster_ExtraComponentsModule_declarations</title>
<polygon fill="none" stroke="#000000" points="4097,-78 4097,-130 6559,-130 6559,-78 4097,-78"/>
</g>
<g id="clust16" class="cluster">
<title>cluster_ExtraComponentsModule_imports</title>
<polygon fill="none" stroke="#000000" points="3975,-78 3975,-130 4089,-130 4089,-78 3975,-78"/>
</g>
<g id="clust19" class="cluster">
<title>cluster_ExtraComponentsModule_providers</title>
<polygon fill="none" stroke="#000000" points="16,-78 16,-130 3967,-130 3967,-78 16,-78"/>
</g>
<!-- FooterComponent -->
<g id="node1" class="node">
<title>FooterComponent</title>
<polygon fill="#ffffb3" stroke="#000000" points="6550.8809,-122 6433.1191,-122 6433.1191,-86 6550.8809,-86 6550.8809,-122"/>
<text text-anchor="middle" x="6492" y="-99.8" font-family="Times,serif" font-size="14.00" fill="#000000">FooterComponent</text>
</g>
<!-- ExtraComponentsModule -->
<g id="node14" class="node">
<title>ExtraComponentsModule</title>
<polygon fill="#8dd3c7" stroke="#000000" points="3500.1456,-187 3497.1456,-191 3476.1456,-191 3473.1456,-187 3339.8544,-187 3339.8544,-151 3500.1456,-151 3500.1456,-187"/>
<text text-anchor="middle" x="3420" y="-164.8" font-family="Times,serif" font-size="14.00" fill="#000000">ExtraComponentsModule</text>
</g>
<!-- FooterComponent&#45;&gt;ExtraComponentsModule -->
<g id="edge1" class="edge">
<title>FooterComponent&#45;&gt;ExtraComponentsModule</title>
<path fill="none" stroke="#000000" d="M6492,-122.3802C6492,-146.2785 6492,-185 6492,-185 6492,-185 3510.197,-185 3510.197,-185"/>
<polygon fill="#000000" stroke="#000000" points="3510.197,-181.5001 3500.197,-185 3510.1969,-188.5001 3510.197,-181.5001"/>
</g>
<!-- HeaderComponent -->
<g id="node2" class="node">
<title>HeaderComponent</title>
<polygon fill="#ffffb3" stroke="#000000" points="6414.7437,-122 6293.2563,-122 6293.2563,-86 6414.7437,-86 6414.7437,-122"/>
<text text-anchor="middle" x="6354" y="-99.8" font-family="Times,serif" font-size="14.00" fill="#000000">HeaderComponent</text>
</g>
<!-- HeaderComponent&#45;&gt;ExtraComponentsModule -->
<g id="edge2" class="edge">
<title>HeaderComponent&#45;&gt;ExtraComponentsModule</title>
<path fill="none" stroke="#000000" d="M6354,-122.3228C6354,-145.6602 6354,-183 6354,-183 6354,-183 3510.3816,-183 3510.3816,-183"/>
<polygon fill="#000000" stroke="#000000" points="3510.3816,-179.5001 3500.3816,-183 3510.3815,-186.5001 3510.3816,-179.5001"/>
</g>
<!-- LayoutDirectionSwitcherComponent -->
<g id="node3" class="node">
<title>LayoutDirectionSwitcherComponent</title>
<polygon fill="#ffffb3" stroke="#000000" points="6274.6189,-122 6051.3811,-122 6051.3811,-86 6274.6189,-86 6274.6189,-122"/>
<text text-anchor="middle" x="6163" y="-99.8" font-family="Times,serif" font-size="14.00" fill="#000000">LayoutDirectionSwitcherComponent</text>
</g>
<!-- LayoutDirectionSwitcherComponent&#45;&gt;ExtraComponentsModule -->
<g id="edge3" class="edge">
<title>LayoutDirectionSwitcherComponent&#45;&gt;ExtraComponentsModule</title>
<path fill="none" stroke="#000000" d="M6163,-122.2479C6163,-145.0179 6163,-181 6163,-181 6163,-181 3510.2379,-181 3510.2379,-181"/>
<polygon fill="#000000" stroke="#000000" points="3510.2379,-177.5001 3500.2379,-181 3510.2379,-184.5001 3510.2379,-177.5001"/>
</g>
<!-- OneColumnLayoutComponent -->
<g id="node4" class="node">
<title>OneColumnLayoutComponent</title>
<polygon fill="#ffffb3" stroke="#000000" points="6032.9297,-122 5843.0703,-122 5843.0703,-86 6032.9297,-86 6032.9297,-122"/>
<text text-anchor="middle" x="5938" y="-99.8" font-family="Times,serif" font-size="14.00" fill="#000000">OneColumnLayoutComponent</text>
</g>
<!-- OneColumnLayoutComponent&#45;&gt;ExtraComponentsModule -->
<g id="edge4" class="edge">
<title>OneColumnLayoutComponent&#45;&gt;ExtraComponentsModule</title>
<path fill="none" stroke="#000000" d="M5938,-122.1554C5938,-144.3519 5938,-179 5938,-179 5938,-179 3510.2206,-179 3510.2206,-179"/>
<polygon fill="#000000" stroke="#000000" points="3510.2206,-175.5001 3500.2206,-179 3510.2206,-182.5001 3510.2206,-175.5001"/>
</g>
<!-- SampleLayoutComponent -->
<g id="node5" class="node">
<title>SampleLayoutComponent</title>
<polygon fill="#ffffb3" stroke="#000000" points="5825.4832,-122 5662.5168,-122 5662.5168,-86 5825.4832,-86 5825.4832,-122"/>
<text text-anchor="middle" x="5744" y="-99.8" font-family="Times,serif" font-size="14.00" fill="#000000">SampleLayoutComponent</text>
</g>
<!-- SampleLayoutComponent&#45;&gt;ExtraComponentsModule -->
<g id="edge5" class="edge">
<title>SampleLayoutComponent&#45;&gt;ExtraComponentsModule</title>
<path fill="none" stroke="#000000" d="M5744,-122.0449C5744,-143.6623 5744,-177 5744,-177 5744,-177 3510.3345,-177 3510.3345,-177"/>
<polygon fill="#000000" stroke="#000000" points="3510.3345,-173.5001 3500.3345,-177 3510.3344,-180.5001 3510.3345,-173.5001"/>
</g>
<!-- SearchInputComponent -->
<g id="node6" class="node">
<title>SearchInputComponent</title>
<polygon fill="#ffffb3" stroke="#000000" points="5644.4706,-122 5495.5294,-122 5495.5294,-86 5644.4706,-86 5644.4706,-122"/>
<text text-anchor="middle" x="5570" y="-99.8" font-family="Times,serif" font-size="14.00" fill="#000000">SearchInputComponent</text>
</g>
<!-- SearchInputComponent&#45;&gt;ExtraComponentsModule -->
<g id="edge6" class="edge">
<title>SearchInputComponent&#45;&gt;ExtraComponentsModule</title>
<path fill="none" stroke="#000000" d="M5570,-122.2843C5570,-143.3211 5570,-175 5570,-175 5570,-175 3510.3586,-175 3510.3586,-175"/>
<polygon fill="#000000" stroke="#000000" points="3510.3586,-171.5001 3500.3586,-175 3510.3586,-178.5001 3510.3586,-171.5001"/>
</g>
<!-- SwitcherComponent -->
<g id="node7" class="node">
<title>SwitcherComponent</title>
<polygon fill="#ffffb3" stroke="#000000" points="5477.5926,-122 5346.4074,-122 5346.4074,-86 5477.5926,-86 5477.5926,-122"/>
<text text-anchor="middle" x="5412" y="-99.8" font-family="Times,serif" font-size="14.00" fill="#000000">SwitcherComponent</text>
</g>
<!-- SwitcherComponent&#45;&gt;ExtraComponentsModule -->
<g id="edge7" class="edge">
<title>SwitcherComponent&#45;&gt;ExtraComponentsModule</title>
<path fill="none" stroke="#000000" d="M5412,-122.1289C5412,-142.5724 5412,-173 5412,-173 5412,-173 3510.2456,-173 3510.2456,-173"/>
<polygon fill="#000000" stroke="#000000" points="3510.2457,-169.5001 3500.2456,-173 3510.2456,-176.5001 3510.2457,-169.5001"/>
</g>
<!-- ThemeSettingsComponent -->
<g id="node8" class="node">
<title>ThemeSettingsComponent</title>
<polygon fill="#ffffb3" stroke="#000000" points="5328.8187,-122 5163.1813,-122 5163.1813,-86 5328.8187,-86 5328.8187,-122"/>
<text text-anchor="middle" x="5246" y="-99.8" font-family="Times,serif" font-size="14.00" fill="#000000">ThemeSettingsComponent</text>
</g>
<!-- ThemeSettingsComponent&#45;&gt;ExtraComponentsModule -->
<g id="edge8" class="edge">
<title>ThemeSettingsComponent&#45;&gt;ExtraComponentsModule</title>
<path fill="none" stroke="#000000" d="M5246,-122.308C5246,-142.1455 5246,-171 5246,-171 5246,-171 3510.2251,-171 3510.2251,-171"/>
<polygon fill="#000000" stroke="#000000" points="3510.2251,-167.5001 3500.2251,-171 3510.225,-174.5001 3510.2251,-167.5001"/>
</g>
<!-- ThemeSwitcherComponent -->
<g id="node9" class="node">
<title>ThemeSwitcherComponent</title>
<polygon fill="#ffffb3" stroke="#000000" points="5144.965,-122 4975.035,-122 4975.035,-86 5144.965,-86 5144.965,-122"/>
<text text-anchor="middle" x="5060" y="-99.8" font-family="Times,serif" font-size="14.00" fill="#000000">ThemeSwitcherComponent</text>
</g>
<!-- ThemeSwitcherComponent&#45;&gt;ExtraComponentsModule -->
<g id="edge9" class="edge">
<title>ThemeSwitcherComponent&#45;&gt;ExtraComponentsModule</title>
<path fill="none" stroke="#000000" d="M5060,-122.1686C5060,-141.0898 5060,-168 5060,-168 5060,-168 3510.2108,-168 3510.2108,-168"/>
<polygon fill="#000000" stroke="#000000" points="3510.2108,-164.5001 3500.2108,-168 3510.2108,-171.5001 3510.2108,-164.5001"/>
</g>
<!-- ThemeSwitcherListComponent -->
<g id="node10" class="node">
<title>ThemeSwitcherListComponent</title>
<polygon fill="#ffffb3" stroke="#000000" points="4956.7436,-122 4765.2564,-122 4765.2564,-86 4956.7436,-86 4956.7436,-122"/>
<text text-anchor="middle" x="4861" y="-99.8" font-family="Times,serif" font-size="14.00" fill="#000000">ThemeSwitcherListComponent</text>
</g>
<!-- ThemeSwitcherListComponent&#45;&gt;ExtraComponentsModule -->
<g id="edge10" class="edge">
<title>ThemeSwitcherListComponent&#45;&gt;ExtraComponentsModule</title>
<path fill="none" stroke="#000000" d="M4861,-122.2667C4861,-140.5552 4861,-166 4861,-166 4861,-166 3510.3028,-166 3510.3028,-166"/>
<polygon fill="#000000" stroke="#000000" points="3510.3028,-162.5001 3500.3028,-166 3510.3028,-169.5001 3510.3028,-162.5001"/>
</g>
<!-- ThreeColumnsLayoutComponent -->
<g id="node11" class="node">
<title>ThreeColumnsLayoutComponent</title>
<polygon fill="#ffffb3" stroke="#000000" points="4747.1951,-122 4542.8049,-122 4542.8049,-86 4747.1951,-86 4747.1951,-122"/>
<text text-anchor="middle" x="4645" y="-99.8" font-family="Times,serif" font-size="14.00" fill="#000000">ThreeColumnsLayoutComponent</text>
</g>
<!-- ThreeColumnsLayoutComponent&#45;&gt;ExtraComponentsModule -->
<g id="edge11" class="edge">
<title>ThreeColumnsLayoutComponent&#45;&gt;ExtraComponentsModule</title>
<path fill="none" stroke="#000000" d="M4645,-122.002C4645,-139.6754 4645,-164 4645,-164 4645,-164 3510.3757,-164 3510.3757,-164"/>
<polygon fill="#000000" stroke="#000000" points="3510.3757,-160.5001 3500.3757,-164 3510.3756,-167.5001 3510.3757,-160.5001"/>
</g>
<!-- ToggleSettingsButtonComponent -->
<g id="node12" class="node">
<title>ToggleSettingsButtonComponent</title>
<polygon fill="#ffffb3" stroke="#000000" points="4525.2217,-122 4320.7783,-122 4320.7783,-86 4525.2217,-86 4525.2217,-122"/>
<text text-anchor="middle" x="4423" y="-99.8" font-family="Times,serif" font-size="14.00" fill="#000000">ToggleSettingsButtonComponent</text>
</g>
<!-- ToggleSettingsButtonComponent&#45;&gt;ExtraComponentsModule -->
<g id="edge12" class="edge">
<title>ToggleSettingsButtonComponent&#45;&gt;ExtraComponentsModule</title>
<path fill="none" stroke="#000000" d="M4423,-122.0336C4423,-139.0597 4423,-162 4423,-162 4423,-162 3510.3842,-162 3510.3842,-162"/>
<polygon fill="#000000" stroke="#000000" points="3510.3843,-158.5001 3500.3842,-162 3510.3842,-165.5001 3510.3843,-158.5001"/>
</g>
<!-- TwoColumnsLayoutComponent -->
<g id="node13" class="node">
<title>TwoColumnsLayoutComponent</title>
<polygon fill="#ffffb3" stroke="#000000" points="4302.7119,-122 4105.2881,-122 4105.2881,-86 4302.7119,-86 4302.7119,-122"/>
<text text-anchor="middle" x="4204" y="-99.8" font-family="Times,serif" font-size="14.00" fill="#000000">TwoColumnsLayoutComponent</text>
</g>
<!-- TwoColumnsLayoutComponent&#45;&gt;ExtraComponentsModule -->
<g id="edge13" class="edge">
<title>TwoColumnsLayoutComponent&#45;&gt;ExtraComponentsModule</title>
<path fill="none" stroke="#000000" d="M4204,-122.027C4204,-138.3976 4204,-160 4204,-160 4204,-160 3510.2174,-160 3510.2174,-160"/>
<polygon fill="#000000" stroke="#000000" points="3510.2174,-156.5001 3500.2174,-160 3510.2173,-163.5001 3510.2174,-156.5001"/>
</g>
<!-- ThemeModule -->
<g id="node15" class="node">
<title>ThemeModule</title>
<polygon fill="#8dd3c7" stroke="#000000" points="4081.4231,-122 4078.4231,-126 4057.4231,-126 4054.4231,-122 3982.5769,-122 3982.5769,-86 4081.4231,-86 4081.4231,-122"/>
<text text-anchor="middle" x="4032" y="-99.8" font-family="Times,serif" font-size="14.00" fill="#000000">ThemeModule</text>
</g>
<!-- ThemeModule&#45;&gt;ExtraComponentsModule -->
<g id="edge14" class="edge">
<title>ThemeModule&#45;&gt;ExtraComponentsModule</title>
<path fill="none" stroke="#000000" d="M4032,-122.2819C4032,-137.9478 4032,-158 4032,-158 4032,-158 3510.3227,-158 3510.3227,-158"/>
<polygon fill="#000000" stroke="#000000" points="3510.3228,-154.5001 3500.3227,-158 3510.3227,-161.5001 3510.3228,-154.5001"/>
</g>
<!-- CountryOrderService -->
<g id="node16" class="node">
<title>CountryOrderService</title>
<ellipse fill="#fdb462" stroke="#000000" cx="3865" cy="-104" rx="94.3215" ry="18"/>
<text text-anchor="middle" x="3865" y="-99.8" font-family="Times,serif" font-size="14.00" fill="#000000">CountryOrderService</text>
</g>
<!-- CountryOrderService&#45;&gt;ExtraComponentsModule -->
<g id="edge15" class="edge">
<title>CountryOrderService&#45;&gt;ExtraComponentsModule</title>
<path fill="none" stroke="#000000" d="M3865,-122.1871C3865,-137.1824 3865,-156 3865,-156 3865,-156 3510.3284,-156 3510.3284,-156"/>
<polygon fill="#000000" stroke="#000000" points="3510.3285,-152.5001 3500.3284,-156 3510.3284,-159.5001 3510.3285,-152.5001"/>
</g>
<!-- EarningService -->
<g id="node17" class="node">
<title>EarningService</title>
<ellipse fill="#fdb462" stroke="#000000" cx="3682" cy="-104" rx="70.6239" ry="18"/>
<text text-anchor="middle" x="3682" y="-99.8" font-family="Times,serif" font-size="14.00" fill="#000000">EarningService</text>
</g>
<!-- EarningService&#45;&gt;ExtraComponentsModule -->
<g id="edge16" class="edge">
<title>EarningService&#45;&gt;ExtraComponentsModule</title>
<path fill="none" stroke="#000000" d="M3682,-122.0511C3682,-136.373 3682,-154 3682,-154 3682,-154 3510.3892,-154 3510.3892,-154"/>
<polygon fill="#000000" stroke="#000000" points="3510.3892,-150.5001 3500.3892,-154 3510.3891,-157.5001 3510.3892,-150.5001"/>
</g>
<!-- ElectricityService -->
<g id="node18" class="node">
<title>ElectricityService</title>
<ellipse fill="#fdb462" stroke="#000000" cx="3513" cy="-104" rx="80.4267" ry="18"/>
<text text-anchor="middle" x="3513" y="-99.8" font-family="Times,serif" font-size="14.00" fill="#000000">ElectricityService</text>
</g>
<!-- ElectricityService&#45;&gt;ExtraComponentsModule -->
<g id="edge17" class="edge">
<title>ElectricityService&#45;&gt;ExtraComponentsModule</title>
<path fill="none" stroke="#000000" d="M3466.5548,-118.7495C3466.5548,-118.7495 3466.5548,-140.5882 3466.5548,-140.5882"/>
<polygon fill="#000000" stroke="#000000" points="3463.0549,-140.5881 3466.5548,-150.5882 3470.0549,-140.5882 3463.0549,-140.5881"/>
</g>
<!-- OrdersChartService -->
<g id="node19" class="node">
<title>OrdersChartService</title>
<ellipse fill="#fdb462" stroke="#000000" cx="3327" cy="-104" rx="87.9355" ry="18"/>
<text text-anchor="middle" x="3327" y="-99.8" font-family="Times,serif" font-size="14.00" fill="#000000">OrdersChartService</text>
</g>
<!-- OrdersChartService&#45;&gt;ExtraComponentsModule -->
<g id="edge18" class="edge">
<title>OrdersChartService&#45;&gt;ExtraComponentsModule</title>
<path fill="none" stroke="#000000" d="M3377.1974,-119.0757C3377.1974,-119.0757 3377.1974,-140.7642 3377.1974,-140.7642"/>
<polygon fill="#000000" stroke="#000000" points="3373.6975,-140.7642 3377.1974,-150.7642 3380.6975,-140.7642 3373.6975,-140.7642"/>
</g>
<!-- OrdersProfitChartService -->
<g id="node20" class="node">
<title>OrdersProfitChartService</title>
<ellipse fill="#fdb462" stroke="#000000" cx="3112" cy="-104" rx="109.9227" ry="18"/>
<text text-anchor="middle" x="3112" y="-99.8" font-family="Times,serif" font-size="14.00" fill="#000000">OrdersProfitChartService</text>
</g>
<!-- OrdersProfitChartService&#45;&gt;ExtraComponentsModule -->
<g id="edge19" class="edge">
<title>OrdersProfitChartService&#45;&gt;ExtraComponentsModule</title>
<path fill="none" stroke="#000000" d="M3112,-122.0511C3112,-136.373 3112,-154 3112,-154 3112,-154 3329.4789,-154 3329.4789,-154"/>
<polygon fill="#000000" stroke="#000000" points="3329.479,-157.5001 3339.4789,-154 3329.4789,-150.5001 3329.479,-157.5001"/>
</g>
<!-- PeriodsService -->
<g id="node21" class="node">
<title>PeriodsService</title>
<ellipse fill="#fdb462" stroke="#000000" cx="2915" cy="-104" rx="68.9158" ry="18"/>
<text text-anchor="middle" x="2915" y="-99.8" font-family="Times,serif" font-size="14.00" fill="#000000">PeriodsService</text>
</g>
<!-- PeriodsService&#45;&gt;ExtraComponentsModule -->
<g id="edge20" class="edge">
<title>PeriodsService&#45;&gt;ExtraComponentsModule</title>
<path fill="none" stroke="#000000" d="M2915,-122.1871C2915,-137.1824 2915,-156 2915,-156 2915,-156 3329.7022,-156 3329.7022,-156"/>
<polygon fill="#000000" stroke="#000000" points="3329.7023,-159.5001 3339.7022,-156 3329.7022,-152.5001 3329.7023,-159.5001"/>
</g>
<!-- ProfitBarAnimationChartService -->
<g id="node22" class="node">
<title>ProfitBarAnimationChartService</title>
<ellipse fill="#fdb462" stroke="#000000" cx="2689" cy="-104" rx="138.8758" ry="18"/>
<text text-anchor="middle" x="2689" y="-99.8" font-family="Times,serif" font-size="14.00" fill="#000000">ProfitBarAnimationChartService</text>
</g>
<!-- ProfitBarAnimationChartService&#45;&gt;ExtraComponentsModule -->
<g id="edge21" class="edge">
<title>ProfitBarAnimationChartService&#45;&gt;ExtraComponentsModule</title>
<path fill="none" stroke="#000000" d="M2689,-122.2819C2689,-137.9478 2689,-158 2689,-158 2689,-158 3329.6792,-158 3329.6792,-158"/>
<polygon fill="#000000" stroke="#000000" points="3329.6792,-161.5001 3339.6792,-158 3329.6791,-154.5001 3329.6792,-161.5001"/>
</g>
<!-- ProfitChartService -->
<g id="node23" class="node">
<title>ProfitChartService</title>
<ellipse fill="#fdb462" stroke="#000000" cx="2449" cy="-104" rx="83.3789" ry="18"/>
<text text-anchor="middle" x="2449" y="-99.8" font-family="Times,serif" font-size="14.00" fill="#000000">ProfitChartService</text>
</g>
<!-- ProfitChartService&#45;&gt;ExtraComponentsModule -->
<g id="edge22" class="edge">
<title>ProfitChartService&#45;&gt;ExtraComponentsModule</title>
<path fill="none" stroke="#000000" d="M2449,-122.027C2449,-138.3976 2449,-160 2449,-160 2449,-160 3329.7129,-160 3329.7129,-160"/>
<polygon fill="#000000" stroke="#000000" points="3329.7129,-163.5001 3339.7129,-160 3329.7129,-156.5001 3329.7129,-163.5001"/>
</g>
<!-- SecurityCamerasService -->
<g id="node24" class="node">
<title>SecurityCamerasService</title>
<ellipse fill="#fdb462" stroke="#000000" cx="2242" cy="-104" rx="105.9112" ry="18"/>
<text text-anchor="middle" x="2242" y="-99.8" font-family="Times,serif" font-size="14.00" fill="#000000">SecurityCamerasService</text>
</g>
<!-- SecurityCamerasService&#45;&gt;ExtraComponentsModule -->
<g id="edge23" class="edge">
<title>SecurityCamerasService&#45;&gt;ExtraComponentsModule</title>
<path fill="none" stroke="#000000" d="M2242,-122.0336C2242,-139.0597 2242,-162 2242,-162 2242,-162 3329.4949,-162 3329.4949,-162"/>
<polygon fill="#000000" stroke="#000000" points="3329.495,-165.5001 3339.4949,-162 3329.4949,-158.5001 3329.495,-165.5001"/>
</g>
<!-- SmartTableService -->
<g id="node25" class="node">
<title>SmartTableService</title>
<ellipse fill="#fdb462" stroke="#000000" cx="2033" cy="-104" rx="85.085" ry="18"/>
<text text-anchor="middle" x="2033" y="-99.8" font-family="Times,serif" font-size="14.00" fill="#000000">SmartTableService</text>
</g>
<!-- SmartTableService&#45;&gt;ExtraComponentsModule -->
<g id="edge24" class="edge">
<title>SmartTableService&#45;&gt;ExtraComponentsModule</title>
<path fill="none" stroke="#000000" d="M2033,-122.002C2033,-139.6754 2033,-164 2033,-164 2033,-164 3329.6877,-164 3329.6877,-164"/>
<polygon fill="#000000" stroke="#000000" points="3329.6878,-167.5001 3339.6877,-164 3329.6877,-160.5001 3329.6878,-167.5001"/>
</g>
<!-- SolarService -->
<g id="node26" class="node">
<title>SolarService</title>
<ellipse fill="#fdb462" stroke="#000000" cx="1870" cy="-104" rx="60.2479" ry="18"/>
<text text-anchor="middle" x="1870" y="-99.8" font-family="Times,serif" font-size="14.00" fill="#000000">SolarService</text>
</g>
<!-- SolarService&#45;&gt;ExtraComponentsModule -->
<g id="edge25" class="edge">
<title>SolarService&#45;&gt;ExtraComponentsModule</title>
<path fill="none" stroke="#000000" d="M1870,-122.2667C1870,-140.5552 1870,-166 1870,-166 1870,-166 3329.6594,-166 3329.6594,-166"/>
<polygon fill="#000000" stroke="#000000" points="3329.6594,-169.5001 3339.6594,-166 3329.6594,-162.5001 3329.6594,-169.5001"/>
</g>
<!-- StatsBarService -->
<g id="node27" class="node">
<title>StatsBarService</title>
<ellipse fill="#fdb462" stroke="#000000" cx="1719" cy="-104" rx="72.9237" ry="18"/>
<text text-anchor="middle" x="1719" y="-99.8" font-family="Times,serif" font-size="14.00" fill="#000000">StatsBarService</text>
</g>
<!-- StatsBarService&#45;&gt;ExtraComponentsModule -->
<g id="edge26" class="edge">
<title>StatsBarService&#45;&gt;ExtraComponentsModule</title>
<path fill="none" stroke="#000000" d="M1719,-122.1686C1719,-141.0898 1719,-168 1719,-168 1719,-168 3329.671,-168 3329.671,-168"/>
<polygon fill="#000000" stroke="#000000" points="3329.6711,-171.5001 3339.671,-168 3329.671,-164.5001 3329.6711,-171.5001"/>
</g>
<!-- StatsProgressBarService -->
<g id="node28" class="node">
<title>StatsProgressBarService</title>
<ellipse fill="#fdb462" stroke="#000000" cx="1522" cy="-104" rx="105.9286" ry="18"/>
<text text-anchor="middle" x="1522" y="-99.8" font-family="Times,serif" font-size="14.00" fill="#000000">StatsProgressBarService</text>
</g>
<!-- StatsProgressBarService&#45;&gt;ExtraComponentsModule -->
<g id="edge27" class="edge">
<title>StatsProgressBarService&#45;&gt;ExtraComponentsModule</title>
<path fill="none" stroke="#000000" d="M1522,-122.308C1522,-142.1455 1522,-171 1522,-171 1522,-171 3329.6576,-171 3329.6576,-171"/>
<polygon fill="#000000" stroke="#000000" points="3329.6576,-174.5001 3339.6576,-171 3329.6576,-167.5001 3329.6576,-174.5001"/>
</g>
<!-- TemperatureHumidityService -->
<g id="node29" class="node">
<title>TemperatureHumidityService</title>
<ellipse fill="#fdb462" stroke="#000000" cx="1272" cy="-104" rx="126.1811" ry="18"/>
<text text-anchor="middle" x="1272" y="-99.8" font-family="Times,serif" font-size="14.00" fill="#000000">TemperatureHumidityService</text>
</g>
<!-- TemperatureHumidityService&#45;&gt;ExtraComponentsModule -->
<g id="edge28" class="edge">
<title>TemperatureHumidityService&#45;&gt;ExtraComponentsModule</title>
<path fill="none" stroke="#000000" d="M1272,-122.1289C1272,-142.5724 1272,-173 1272,-173 1272,-173 3329.7162,-173 3329.7162,-173"/>
<polygon fill="#000000" stroke="#000000" points="3329.7162,-176.5001 3339.7162,-173 3329.7161,-169.5001 3329.7162,-176.5001"/>
</g>
<!-- TrafficBarService -->
<g id="node30" class="node">
<title>TrafficBarService</title>
<ellipse fill="#fdb462" stroke="#000000" cx="1047" cy="-104" rx="80.9698" ry="18"/>
<text text-anchor="middle" x="1047" y="-99.8" font-family="Times,serif" font-size="14.00" fill="#000000">TrafficBarService</text>
</g>
<!-- TrafficBarService&#45;&gt;ExtraComponentsModule -->
<g id="edge29" class="edge">
<title>TrafficBarService&#45;&gt;ExtraComponentsModule</title>
<path fill="none" stroke="#000000" d="M1047,-122.2843C1047,-143.3211 1047,-175 1047,-175 1047,-175 3329.6863,-175 3329.6863,-175"/>
<polygon fill="#000000" stroke="#000000" points="3329.6863,-178.5001 3339.6863,-175 3329.6863,-171.5001 3329.6863,-178.5001"/>
</g>
<!-- TrafficChartService -->
<g id="node31" class="node">
<title>TrafficChartService</title>
<ellipse fill="#fdb462" stroke="#000000" cx="860" cy="-104" rx="88.494" ry="18"/>
<text text-anchor="middle" x="860" y="-99.8" font-family="Times,serif" font-size="14.00" fill="#000000">TrafficChartService</text>
</g>
<!-- TrafficChartService&#45;&gt;ExtraComponentsModule -->
<g id="edge30" class="edge">
<title>TrafficChartService&#45;&gt;ExtraComponentsModule</title>
<path fill="none" stroke="#000000" d="M860,-122.0449C860,-143.6623 860,-177 860,-177 860,-177 3329.5125,-177 3329.5125,-177"/>
<polygon fill="#000000" stroke="#000000" points="3329.5125,-180.5001 3339.5125,-177 3329.5124,-173.5001 3329.5125,-180.5001"/>
</g>
<!-- TrafficListService -->
<g id="node32" class="node">
<title>TrafficListService</title>
<ellipse fill="#fdb462" stroke="#000000" cx="672" cy="-104" rx="81.6307" ry="18"/>
<text text-anchor="middle" x="672" y="-99.8" font-family="Times,serif" font-size="14.00" fill="#000000">TrafficListService</text>
</g>
<!-- TrafficListService&#45;&gt;ExtraComponentsModule -->
<g id="edge31" class="edge">
<title>TrafficListService&#45;&gt;ExtraComponentsModule</title>
<path fill="none" stroke="#000000" d="M672,-122.1554C672,-144.3519 672,-179 672,-179 672,-179 3329.6159,-179 3329.6159,-179"/>
<polygon fill="#000000" stroke="#000000" points="3329.6159,-182.5001 3339.6159,-179 3329.6158,-175.5001 3329.6159,-182.5001"/>
</g>
<!-- UserActivityService -->
<g id="node33" class="node">
<title>UserActivityService</title>
<ellipse fill="#fdb462" stroke="#000000" cx="482" cy="-104" rx="89.7402" ry="18"/>
<text text-anchor="middle" x="482" y="-99.8" font-family="Times,serif" font-size="14.00" fill="#000000">UserActivityService</text>
</g>
<!-- UserActivityService&#45;&gt;ExtraComponentsModule -->
<g id="edge32" class="edge">
<title>UserActivityService&#45;&gt;ExtraComponentsModule</title>
<path fill="none" stroke="#000000" d="M482,-122.2479C482,-145.0179 482,-181 482,-181 482,-181 3329.5088,-181 3329.5088,-181"/>
<polygon fill="#000000" stroke="#000000" points="3329.5089,-184.5001 3339.5088,-181 3329.5088,-177.5001 3329.5089,-184.5001"/>
</g>
<!-- UserService -->
<g id="node34" class="node">
<title>UserService</title>
<ellipse fill="#fdb462" stroke="#000000" cx="316" cy="-104" rx="58.4415" ry="18"/>
<text text-anchor="middle" x="316" y="-99.8" font-family="Times,serif" font-size="14.00" fill="#000000">UserService</text>
</g>
<!-- UserService&#45;&gt;ExtraComponentsModule -->
<g id="edge33" class="edge">
<title>UserService&#45;&gt;ExtraComponentsModule</title>
<path fill="none" stroke="#000000" d="M316,-122.3228C316,-145.6602 316,-183 316,-183 316,-183 3329.7583,-183 3329.7583,-183"/>
<polygon fill="#000000" stroke="#000000" points="3329.7583,-186.5001 3339.7583,-183 3329.7582,-179.5001 3329.7583,-186.5001"/>
</g>
<!-- VisitorsAnalyticsService -->
<g id="node35" class="node">
<title>VisitorsAnalyticsService</title>
<ellipse fill="#fdb462" stroke="#000000" cx="132" cy="-104" rx="107.654" ry="18"/>
<text text-anchor="middle" x="132" y="-99.8" font-family="Times,serif" font-size="14.00" fill="#000000">VisitorsAnalyticsService</text>
</g>
<!-- VisitorsAnalyticsService&#45;&gt;ExtraComponentsModule -->
<g id="edge34" class="edge">
<title>VisitorsAnalyticsService&#45;&gt;ExtraComponentsModule</title>
<path fill="none" stroke="#000000" d="M132,-122.3802C132,-146.2785 132,-185 132,-185 132,-185 3329.5396,-185 3329.5396,-185"/>
<polygon fill="#000000" stroke="#000000" points="3329.5397,-188.5001 3339.5396,-185 3329.5396,-181.5001 3329.5397,-188.5001"/>
</g>
</g>
</svg>
